<?xml version="1.0" encoding="UTF-8"?>
<!DOCTYPE svg PUBLIC "-//W3C//DTD SVG 1.1//EN" "http://www.w3.org/Graphics/SVG/1.1/DTD/svg11.dtd">
<svg xmlns="http://www.w3.org/2000/svg" version="1.1" width="5186px" height="4629px" style="shape-rendering:geometricPrecision; text-rendering:geometricPrecision; image-rendering:optimizeQuality; fill-rule:evenodd; clip-rule:evenodd" xmlns:xlink="http://www.w3.org/1999/xlink">
<g><path style="opacity:1" fill="#0b1e32" d="M 2195.5,1230.5 C 2194.5,1312.33 2194.17,1394.33 2194.5,1476.5C 2509.83,1476.5 2825.17,1476.5 3140.5,1476.5C 3140.5,1560.83 3140.5,1645.17 3140.5,1729.5C 2850.5,1729.5 2560.5,1729.5 2270.5,1729.5C 2270.5,1810.17 2270.5,1890.83 2270.5,1971.5C 2560.5,1971.5 2850.5,1971.5 3140.5,1971.5C 3140.5,2056.17 3140.5,2140.83 3140.5,2225.5C 2824.83,2225.5 2509.17,2225.5 2193.5,2225.5C 2193.5,2161.17 2193.5,2096.83 2193.5,2032.5C 2098.5,2032.5 2003.5,2032.5 1908.5,2032.5C 1908.5,1914.83 1908.5,1797.17 1908.5,1679.5C 2003.5,1679.5 2098.5,1679.5 2193.5,1679.5C 2193.5,1612.83 2193.5,1546.17 2193.5,1479.5C 2111.5,1479.5 2029.5,1479.5 1947.5,1479.5C 1947.5,1395.5 1947.5,1311.5 1947.5,1227.5C 2029.5,1227.5 2111.5,1227.5 2193.5,1227.5C 2193.5,1143.83 2193.5,1060.17 2193.5,976.5C 2509.17,976.5 2824.83,976.5 3140.5,976.5C 3140.5,1061.17 3140.5,1145.83 3140.5,1230.5C 2825.5,1230.5 2510.5,1230.5 2195.5,1230.5 Z"/></g>
<g><path style="opacity:1" fill="#0c1f32" d="M 1819.5,1033.5 C 1863.17,1033.5 1906.83,1033.5 1950.5,1033.5C 1950.5,1079.5 1950.5,1125.5 1950.5,1171.5C 1906.83,1171.5 1863.17,1171.5 1819.5,1171.5C 1819.5,1125.5 1819.5,1079.5 1819.5,1033.5 Z"/></g>
<g><path style="opacity:1" fill="#061932" d="M 2195.5,1230.5 C 2195.5,1312.17 2195.5,1393.83 2195.5,1475.5C 2510.67,1475.17 2825.67,1475.5 3140.5,1476.5C 2825.17,1476.5 2509.83,1476.5 2194.5,1476.5C 2194.17,1394.33 2194.5,1312.33 2195.5,1230.5 Z"/></g>
<g><path style="opacity:1" fill="#000000" d="M 3072.5,2628.5 C 3074.34,2628.64 3074.67,2629.31 3073.5,2630.5C 3072.7,2630.04 3072.37,2629.38 3072.5,2628.5 Z"/></g>
<g><path style="opacity:1" fill="#0b1e31" d="M 1986.5,2848.5 C 2037.09,2845.96 2086.76,2851.46 2135.5,2865C 2248.4,2902.9 2323.57,2978.4 2361,3091.5C 2383.85,3165.28 2388.85,3240.28 2376,3316.5C 2367.21,3368.72 2348.71,3417.05 2320.5,3461.5C 2300.69,3447.83 2281.35,3433.67 2262.5,3419C 2283.63,3379.34 2297.13,3337.17 2303,3292.5C 2313.35,3217.28 2304.01,3144.61 2275,3074.5C 2227.44,2972.44 2147.28,2917.61 2034.5,2910C 1989.69,2907.06 1946.02,2912.73 1903.5,2927C 1830.63,2955.87 1778.8,3006.37 1748,3078.5C 1707.05,3183.3 1707.38,3287.97 1749,3392.5C 1796.52,3495.95 1877.36,3551.45 1991.5,3559C 2035.01,3561.93 2077.34,3556.26 2118.5,3542C 2131.68,3537.08 2144.35,3531.08 2156.5,3524C 2122.47,3499.32 2088.47,3474.66 2054.5,3450C 2066.47,3435.24 2078.81,3420.74 2091.5,3406.5C 2092.36,3405.42 2093.36,3405.25 2094.5,3406C 2188.5,3473.33 2282.5,3540.67 2376.5,3608C 2364.17,3622.33 2351.83,3636.67 2339.5,3651C 2336.26,3650.55 2333.26,3649.22 2330.5,3647C 2292.58,3619.79 2254.41,3592.96 2216,3566.5C 2167.03,3597.26 2113.53,3614.43 2055.5,3618C 1994.85,3623.61 1935.51,3617.27 1877.5,3599C 1767.6,3557.77 1695.43,3480.93 1661,3368.5C 1641.27,3299.15 1636.94,3228.81 1648,3157.5C 1659.35,3083.5 1689.01,3018.16 1737,2961.5C 1790.32,2904.75 1855.49,2869.25 1932.5,2855C 1950.55,2851.99 1968.55,2849.83 1986.5,2848.5 Z"/></g>
<g><path style="opacity:1" fill="#0b1e32" d="M 1070.5,2924.5 C 1045.17,2924.5 1019.83,2924.5 994.5,2924.5C 1019.66,2923.5 1044.99,2923.17 1070.5,2923.5C 1070.5,2903.5 1070.5,2883.5 1070.5,2863.5C 1226.17,2863.5 1381.83,2863.5 1537.5,2863.5C 1537.5,2883.83 1537.5,2904.17 1537.5,2924.5C 1381.83,2924.5 1226.17,2924.5 1070.5,2924.5 Z"/></g>
<g><path style="opacity:1" fill="#061831" d="M 2603.5,2864.5 C 2578.5,2864.5 2553.5,2864.5 2528.5,2864.5C 2528.5,3024.17 2528.5,3183.83 2528.5,3343.5C 2527.5,3183.67 2527.17,3023.67 2527.5,2863.5C 2553.01,2863.17 2578.34,2863.5 2603.5,2864.5 Z"/></g>
<g><path style="opacity:1" fill="#0b1e31" d="M 2603.5,2864.5 C 2603.33,3022.17 2603.5,3179.83 2604,3337.5C 2607.8,3486.3 2684.13,3560.3 2833,3559.5C 2980.54,3561.29 3057.21,3488.62 3063,3341.5C 3063.5,3182.5 3063.67,3023.5 3063.5,2864.5C 3088.5,2864.5 3113.5,2864.5 3138.5,2864.5C 3138.5,3024.17 3138.5,3183.83 3138.5,3343.5C 3138.79,3394.68 3127.29,3443.01 3104,3488.5C 3069.4,3546.4 3019.57,3584.9 2954.5,3604C 2905.69,3617.17 2856.02,3622.17 2805.5,3619C 2742.14,3617.67 2684.14,3599.67 2631.5,3565C 2576.31,3523.5 2543.48,3468.34 2533,3399.5C 2529.78,3380.97 2528.28,3362.3 2528.5,3343.5C 2528.5,3183.83 2528.5,3024.17 2528.5,2864.5C 2553.5,2864.5 2578.5,2864.5 2603.5,2864.5 Z"/></g>
<g><path style="opacity:1" fill="#061831" d="M 3063.5,2864.5 C 3088.66,2863.5 3113.99,2863.17 3139.5,2863.5C 3139.83,3023.67 3139.5,3183.67 3138.5,3343.5C 3138.5,3183.83 3138.5,3024.17 3138.5,2864.5C 3113.5,2864.5 3088.5,2864.5 3063.5,2864.5 Z"/></g>
<g><path style="opacity:1" fill="#0b1e32" d="M 3331.5,2863.5 C 3356.83,2863.5 3382.17,2863.5 3407.5,2863.5C 3407.5,3110.83 3407.5,3358.17 3407.5,3605.5C 3382.17,3605.5 3356.83,3605.5 3331.5,3605.5C 3331.5,3358.17 3331.5,3110.83 3331.5,2863.5 Z"/></g>
<g><path style="opacity:1" fill="#0b1e31" d="M 3683.5,2924.5 C 3682.5,3151 3682.17,3377.67 3682.5,3604.5C 3657.5,3604.5 3632.5,3604.5 3607.5,3604.5C 3607.5,3357.5 3607.5,3110.5 3607.5,2863.5C 3726.5,2863.33 3845.5,2863.5 3964.5,2864C 4011.83,2863.92 4056.16,2875.25 4097.5,2898C 4153.48,2934.41 4183.98,2986.24 4189,3053.5C 4194.1,3104.34 4183.77,3151.67 4158,3195.5C 4129.52,3236.61 4091.02,3263.78 4042.5,3277C 4022.83,3282.28 4002.83,3285.61 3982.5,3287C 3912.83,3287.5 3843.17,3287.67 3773.5,3287.5C 3773.5,3267.17 3773.5,3246.83 3773.5,3226.5C 3839.85,3226.96 3906.19,3226.46 3972.5,3225C 4077.48,3210.68 4123.98,3150.84 4112,3045.5C 4104.29,2996.13 4077.46,2961.63 4031.5,2942C 4003.31,2930.56 3973.98,2924.9 3943.5,2925C 3856.83,2924.5 3770.17,2924.33 3683.5,2924.5 Z"/></g>
<g><path style="opacity:1" fill="#0b1e32" d="M 994.5,2924.5 C 1019.83,2924.5 1045.17,2924.5 1070.5,2924.5C 1070.17,3130.87 1070.5,3337.21 1071.5,3543.5C 1228.5,3544.5 1385.5,3544.83 1542.5,3544.5C 1542.5,3564.5 1542.5,3584.5 1542.5,3604.5C 1385.17,3604.5 1227.83,3604.5 1070.5,3604.5C 1070.82,3584.45 1070.49,3564.45 1069.5,3544.5C 1044.51,3543.5 1019.51,3543.17 994.5,3543.5C 994.5,3337.17 994.5,3130.83 994.5,2924.5 Z"/></g>
<g><path style="opacity:1" fill="#061831" d="M 3683.5,2924.5 C 3683.5,3151.5 3683.5,3378.5 3683.5,3605.5C 3657.99,3605.83 3632.66,3605.5 3607.5,3604.5C 3632.5,3604.5 3657.5,3604.5 3682.5,3604.5C 3682.17,3377.67 3682.5,3151 3683.5,2924.5 Z"/></g>
<g><path style="opacity:1" fill="#0c1f32" d="M 1160.5,3191.5 C 1276.17,3191.5 1391.83,3191.5 1507.5,3191.5C 1507.5,3211.83 1507.5,3232.17 1507.5,3252.5C 1391.83,3252.5 1276.17,3252.5 1160.5,3252.5C 1160.5,3232.17 1160.5,3211.83 1160.5,3191.5 Z"/></g>
<g><path style="opacity:1" fill="#061831" d="M 1542.5,3544.5 C 1543.5,3564.66 1543.83,3584.99 1543.5,3605.5C 1385.67,3605.83 1228,3605.5 1070.5,3604.5C 1227.83,3604.5 1385.17,3604.5 1542.5,3604.5C 1542.5,3584.5 1542.5,3564.5 1542.5,3544.5 Z"/></g>
</svg>
