<?xml version="1.0" encoding="UTF-8"?>
<svg id="Layer_1" xmlns="http://www.w3.org/2000/svg" version="1.1" viewBox="0 0 1244.5 1111">
  <!-- Generator: Adobe Illustrator 29.3.0, SVG Export Plug-In . SVG Version: 2.1.0 Build 146)  -->
  <defs>
    <style>
      .st0 {
        fill: #e6e1da;
      }

      .st1 {
        fill: #fff;
      }

      .st2 {
        fill: #a9945b;
      }

      .st3 {
        fill: #d7d0c6;
      }

      .st4 {
        fill: #0d2136;
      }
    </style>
  </defs>
  <rect class="st0" x="9718.3" y="-5059.1" width="1244.5" height="595.3"/>
  <g>
    <path class="st2" d="M10179.1-4930.1v337.4h-352.7v-337.4h352.7ZM10106.4-4654.4v-43.2h-148.5v-41.3h148.5v-43.2h-161.3v-42.1h161.3v-43.2h-161.4v42.9h-41.9v42.8h41.9v34.3h-48.5v60.1h48.5v32.9h161.4ZM9903.4-4834.1v-23.5h-22.3v23.5h22.3Z"/>
    <g>
      <rect class="st2" x="10309.5" y="-4828.8" width="81.5" height="10.5"/>
      <path class="st2" d="M10851.8-4807.5c1.9,4.6,2.9,9.8,2.9,15.6s-1,11-2.9,15.6c-1.9,4.6-4.7,8.5-8.3,11.7-3.6,3.2-7.9,5.6-12.9,7.3-5,1.6-10.6,2.4-16.7,2.4h-32v-10.5h29.1c9.1,0,16.5-2.2,22.1-6.5,5.6-4.3,8.5-11,8.5-19.9s-2.8-15.6-8.5-19.9c-5.6-4.4-13-6.5-22.1-6.5h-45v118.9h-13.1v-129.4h60.9c6.1,0,11.7.8,16.7,2.4,5,1.6,9.3,4.1,12.9,7.3,3.6,3.2,6.4,7.1,8.3,11.7"/>
      <rect class="st2" x="10704.7" y="-4828.8" width="13.1" height="129.4"/>
      <path class="st2" d="M10670.9-4828.8v82.8c0,6.7-1,13-3,18.9-2,6-5.1,11.2-9.4,15.7-4.3,4.5-9.8,8-16.5,10.6-6.7,2.6-14.9,3.9-24.5,3.9s-17.6-1.3-24.3-3.9c-6.7-2.6-12.2-6.1-16.5-10.6-4.3-4.5-7.4-9.7-9.4-15.7-2-6-3-12.3-3-18.9v-82.8h13.1v80.1c0,7.5.9,13.9,2.7,19.1,1.8,5.3,4.4,9.5,7.9,12.9,3.4,3.3,7.7,5.7,12.7,7.3,5,1.5,10.6,2.3,16.9,2.3s12.1-.8,17.1-2.3c5-1.5,9.2-3.9,12.7-7.3,3.4-3.3,6.1-7.6,7.9-12.9,1.8-5.3,2.7-11.6,2.7-19.1v-80.1h13.1Z"/>
      <polygon class="st2" points="10524.2 -4708.4 10524.1 -4708.4 10519.2 -4712 10524.2 -4708.4"/>
      <path class="st2" d="M10519.2-4712l5,3.6h0s13.4,9.5,13.4,9.5l-6.5,7.6-21.3-15c-9.4,6.3-21.2,9.4-35.5,9.4s-20.2-1.8-28.3-5.5c-8.1-3.7-14.9-8.6-20.3-14.8-5.4-6.2-9.4-13.3-12.1-21.4-2.7-8.1-4-16.6-4-25.6s1.3-17.5,4-25.6c2.7-8.1,6.7-15.3,12.1-21.5,5.4-6.2,12.1-11.2,20.3-14.9,8.1-3.7,17.6-5.5,28.3-5.5s20.2,1.8,28.3,5.5c8.1,3.7,14.8,8.6,20.2,14.9,5.4,6.2,9.4,13.4,12.1,21.5,2.7,8.1,4.1,16.6,4.1,25.6s-1.7,19.7-5.2,28.6c-1.5,3.9-3.4,7.6-5.6,11l-10-7.2c1.5-2.5,2.7-5.2,3.7-8,2.7-7.8,4.1-16,4.1-24.3s-1-14.1-3-20.8c-2-6.8-5.1-12.8-9.2-18.2-4.1-5.4-9.5-9.7-15.9-13-6.5-3.3-14.3-4.9-23.4-4.9s-16.9,1.6-23.4,4.9c-6.5,3.3-11.9,7.6-16.1,13-4.1,5.4-7.2,11.4-9.2,18.2-2,6.8-3,13.7-3,20.8s1,13.9,3,20.8c2,6.8,5.1,12.9,9.2,18.3,4.2,5.4,9.5,9.7,16.1,13,6.5,3.3,14.3,4.9,23.4,4.9s18.2-2.1,25.4-6.3l-18.1-12.9,6.7-7.8,20,14.3h0s9.8,7.1,9.8,7.1l1.2.8Z"/>
      <rect class="st2" x="10309.5" y="-4710" width="82.4" height="10.5"/>
      <rect class="st2" x="10325.2" y="-4771.6" width="60.6" height="10.5"/>
      <rect class="st2" x="10309.3" y="-4710.2" width=".2" height=".2"/>
      <polygon class="st2" points="10296.2 -4818.3 10296.2 -4710.2 10309.3 -4710.2 10309.3 -4754.9 10309.3 -4761.1 10309.3 -4771.6 10309.3 -4777.7 10309.3 -4818.3 10296.2 -4818.3"/>
    </g>
  </g>
  <rect class="st3" x="8403.7" y="-5059.1" width="1244.5" height="595.3"/>
  <g>
    <path class="st4" d="M8864.5-4930.1v337.4h-352.7v-337.4h352.7ZM8791.8-4654.4v-43.2h-148.5v-41.3h148.5v-43.2h-161.3v-42.1h161.3v-43.2h-161.4v42.9h-41.9v42.8h41.9v34.3h-48.5v60.1h48.5v32.9h161.4ZM8588.8-4834.1v-23.5h-22.3v23.5h22.3Z"/>
    <g>
      <rect class="st4" x="8994.9" y="-4828.8" width="81.5" height="10.5"/>
      <path class="st4" d="M9537.1-4807.5c1.9,4.6,2.9,9.8,2.9,15.6s-1,11-2.9,15.6c-1.9,4.6-4.7,8.5-8.3,11.7-3.6,3.2-7.9,5.6-12.9,7.3-5,1.6-10.6,2.4-16.7,2.4h-32v-10.5h29.1c9.1,0,16.5-2.2,22.1-6.5,5.6-4.3,8.5-11,8.5-19.9s-2.8-15.6-8.5-19.9c-5.6-4.4-13-6.5-22.1-6.5h-45v118.9h-13.1v-129.4h60.9c6.1,0,11.7.8,16.7,2.4,5,1.6,9.3,4.1,12.9,7.3,3.6,3.2,6.4,7.1,8.3,11.7"/>
      <rect class="st4" x="9390.1" y="-4828.8" width="13.1" height="129.4"/>
      <path class="st4" d="M9356.3-4828.8v82.8c0,6.7-1,13-3,18.9-2,6-5.1,11.2-9.4,15.7-4.3,4.5-9.8,8-16.5,10.6-6.7,2.6-14.9,3.9-24.5,3.9s-17.6-1.3-24.3-3.9c-6.7-2.6-12.2-6.1-16.5-10.6-4.3-4.5-7.4-9.7-9.4-15.7-2-6-3-12.3-3-18.9v-82.8h13.1v80.1c0,7.5.9,13.9,2.7,19.1,1.8,5.3,4.4,9.5,7.9,12.9,3.4,3.3,7.7,5.7,12.7,7.3,5,1.5,10.6,2.3,16.9,2.3s12.1-.8,17.1-2.3c5-1.5,9.2-3.9,12.7-7.3,3.4-3.3,6.1-7.6,7.9-12.9,1.8-5.3,2.7-11.6,2.7-19.1v-80.1h13.1Z"/>
      <polygon class="st4" points="9209.5 -4708.4 9209.5 -4708.4 9204.5 -4712 9209.5 -4708.4"/>
      <path class="st4" d="M9204.5-4712l5,3.6h0s13.4,9.5,13.4,9.5l-6.5,7.6-21.3-15c-9.4,6.3-21.2,9.4-35.5,9.4s-20.2-1.8-28.3-5.5c-8.1-3.7-14.9-8.6-20.3-14.8-5.4-6.2-9.4-13.3-12.1-21.4-2.7-8.1-4-16.6-4-25.6s1.3-17.5,4-25.6c2.7-8.1,6.7-15.3,12.1-21.5,5.4-6.2,12.1-11.2,20.3-14.9,8.1-3.7,17.6-5.5,28.3-5.5s20.2,1.8,28.3,5.5c8.1,3.7,14.8,8.6,20.2,14.9,5.4,6.2,9.4,13.4,12.1,21.5,2.7,8.1,4.1,16.6,4.1,25.6s-1.7,19.7-5.2,28.6c-1.5,3.9-3.4,7.6-5.6,11l-10-7.2c1.5-2.5,2.7-5.2,3.7-8,2.7-7.8,4.1-16,4.1-24.3s-1-14.1-3-20.8c-2-6.8-5.1-12.8-9.2-18.2-4.1-5.4-9.5-9.7-15.9-13-6.5-3.3-14.3-4.9-23.4-4.9s-16.9,1.6-23.4,4.9c-6.5,3.3-11.9,7.6-16.1,13-4.1,5.4-7.2,11.4-9.2,18.2-2,6.8-3,13.7-3,20.8s1,13.9,3,20.8c2,6.8,5.1,12.9,9.2,18.3,4.2,5.4,9.5,9.7,16.1,13,6.5,3.3,14.3,4.9,23.4,4.9s18.2-2.1,25.4-6.3l-18.1-12.9,6.7-7.8,20,14.3h0s9.8,7.1,9.8,7.1l1.2.8Z"/>
      <rect class="st4" x="8994.9" y="-4710" width="82.4" height="10.5"/>
      <rect class="st4" x="9010.5" y="-4771.6" width="60.6" height="10.5"/>
      <rect class="st4" x="8994.7" y="-4710.2" width=".2" height=".2"/>
      <polygon class="st4" points="8981.6 -4818.3 8981.6 -4710.2 8994.7 -4710.2 8994.7 -4754.9 8994.7 -4761.1 8994.7 -4771.6 8994.7 -4777.7 8994.7 -4818.3 8981.6 -4818.3"/>
    </g>
  </g>
  <rect class="st2" x="7102.6" y="-5059.1" width="1244.5" height="595.3"/>
  <g>
    <path class="st4" d="M7563.4-4930.1v337.4h-352.7v-337.4h352.7ZM7490.7-4654.4v-43.2h-148.5v-41.3h148.5v-43.2h-161.3v-42.1h161.3v-43.2h-161.4v42.9h-41.9v42.8h41.9v34.3h-48.5v60.1h48.5v32.9h161.4ZM7287.7-4834.1v-23.5h-22.3v23.5h22.3Z"/>
    <g>
      <rect class="st4" x="7693.8" y="-4828.8" width="81.5" height="10.5"/>
      <path class="st4" d="M8236-4807.5c1.9,4.6,2.9,9.8,2.9,15.6s-1,11-2.9,15.6c-1.9,4.6-4.7,8.5-8.3,11.7-3.6,3.2-7.9,5.6-12.9,7.3-5,1.6-10.6,2.4-16.7,2.4h-32v-10.5h29.1c9.1,0,16.5-2.2,22.1-6.5,5.6-4.3,8.5-11,8.5-19.9s-2.8-15.6-8.5-19.9c-5.6-4.4-13-6.5-22.1-6.5h-45v118.9h-13.1v-129.4h60.9c6.1,0,11.7.8,16.7,2.4,5,1.6,9.3,4.1,12.9,7.3,3.6,3.2,6.4,7.1,8.3,11.7"/>
      <rect class="st4" x="8089" y="-4828.8" width="13.1" height="129.4"/>
      <path class="st4" d="M8055.2-4828.8v82.8c0,6.7-1,13-3,18.9-2,6-5.1,11.2-9.4,15.7-4.3,4.5-9.8,8-16.5,10.6-6.7,2.6-14.9,3.9-24.5,3.9s-17.6-1.3-24.3-3.9c-6.7-2.6-12.2-6.1-16.5-10.6-4.3-4.5-7.4-9.7-9.4-15.7-2-6-3-12.3-3-18.9v-82.8h13.1v80.1c0,7.5.9,13.9,2.7,19.1,1.8,5.3,4.4,9.5,7.9,12.9,3.4,3.3,7.7,5.7,12.7,7.3,5,1.5,10.6,2.3,16.9,2.3s12.1-.8,17.1-2.3c5-1.5,9.2-3.9,12.7-7.3,3.4-3.3,6.1-7.6,7.9-12.9,1.8-5.3,2.7-11.6,2.7-19.1v-80.1h13.1Z"/>
      <polygon class="st4" points="7908.5 -4708.4 7908.4 -4708.4 7903.4 -4712 7908.5 -4708.4"/>
      <path class="st4" d="M7903.4-4712l5,3.6h0s13.4,9.5,13.4,9.5l-6.5,7.6-21.3-15c-9.4,6.3-21.2,9.4-35.5,9.4s-20.2-1.8-28.3-5.5c-8.1-3.7-14.9-8.6-20.3-14.8-5.4-6.2-9.4-13.3-12.1-21.4-2.7-8.1-4-16.6-4-25.6s1.3-17.5,4-25.6c2.7-8.1,6.7-15.3,12.1-21.5,5.4-6.2,12.1-11.2,20.3-14.9,8.1-3.7,17.6-5.5,28.3-5.5s20.2,1.8,28.3,5.5c8.1,3.7,14.8,8.6,20.2,14.9,5.4,6.2,9.4,13.4,12.1,21.5,2.7,8.1,4.1,16.6,4.1,25.6s-1.7,19.7-5.2,28.6c-1.5,3.9-3.4,7.6-5.6,11l-10-7.2c1.5-2.5,2.7-5.2,3.7-8,2.7-7.8,4.1-16,4.1-24.3s-1-14.1-3-20.8c-2-6.8-5.1-12.8-9.2-18.2-4.1-5.4-9.5-9.7-15.9-13-6.5-3.3-14.3-4.9-23.4-4.9s-16.9,1.6-23.4,4.9c-6.5,3.3-11.9,7.6-16.1,13-4.1,5.4-7.2,11.4-9.2,18.2-2,6.8-3,13.7-3,20.8s1,13.9,3,20.8c2,6.8,5.1,12.9,9.2,18.3,4.2,5.4,9.5,9.7,16.1,13,6.5,3.3,14.3,4.9,23.4,4.9s18.2-2.1,25.4-6.3l-18.1-12.9,6.7-7.8,20,14.3h0s9.8,7.1,9.8,7.1l1.2.8Z"/>
      <rect class="st4" x="7693.8" y="-4710" width="82.4" height="10.5"/>
      <rect class="st4" x="7709.5" y="-4771.6" width="60.6" height="10.5"/>
      <rect class="st4" x="7693.6" y="-4710.2" width=".2" height=".2"/>
      <polygon class="st4" points="7680.5 -4818.3 7680.5 -4710.2 7693.6 -4710.2 7693.6 -4754.9 7693.6 -4761.1 7693.6 -4771.6 7693.6 -4777.7 7693.6 -4818.3 7680.5 -4818.3"/>
    </g>
  </g>
  <g>
    <path class="st3" d="M8934.6-5594.2v337.4h-352.7v-337.4h352.7ZM8861.9-5318.4v-43.2h-148.5v-41.3h148.5v-43.2h-161.3v-42.1h161.3v-43.2h-161.4v42.9h-41.9v42.8h41.9v34.3h-48.5v60.1h48.5v32.9h161.4ZM8658.9-5498.2v-23.5h-22.3v23.5h22.3Z"/>
    <g>
      <rect class="st3" x="9065" y="-5492.9" width="81.5" height="10.5"/>
      <path class="st3" d="M9607.3-5471.6c1.9,4.6,2.9,9.8,2.9,15.6s-1,11-2.9,15.6c-1.9,4.6-4.7,8.5-8.3,11.7-3.6,3.2-7.9,5.6-12.9,7.3-5,1.6-10.6,2.4-16.7,2.4h-32v-10.5h29.1c9.1,0,16.5-2.2,22.1-6.5,5.6-4.3,8.5-11,8.5-19.9s-2.8-15.6-8.5-19.9c-5.6-4.4-13-6.5-22.1-6.5h-45v118.9h-13.1v-129.4h60.9c6.1,0,11.7.8,16.7,2.4,5,1.6,9.3,4.1,12.9,7.3,3.6,3.2,6.4,7.1,8.3,11.7"/>
      <rect class="st3" x="9460.3" y="-5492.9" width="13.1" height="129.4"/>
      <path class="st3" d="M9426.4-5492.9v82.8c0,6.7-1,13-3,18.9-2,6-5.1,11.2-9.4,15.7-4.3,4.5-9.8,8-16.5,10.6-6.7,2.6-14.9,3.9-24.5,3.9s-17.6-1.3-24.3-3.9c-6.7-2.6-12.2-6.1-16.5-10.6-4.3-4.5-7.4-9.7-9.4-15.7-2-6-3-12.3-3-18.9v-82.8h13.1v80.1c0,7.5.9,13.9,2.7,19.1,1.8,5.3,4.4,9.5,7.9,12.9,3.4,3.3,7.7,5.7,12.7,7.3,5,1.5,10.6,2.3,16.9,2.3s12.1-.8,17.1-2.3c5-1.5,9.2-3.9,12.7-7.3,3.4-3.3,6.1-7.6,7.9-12.9,1.8-5.3,2.7-11.6,2.7-19.1v-80.1h13.1Z"/>
      <polygon class="st3" points="9279.7 -5372.5 9279.6 -5372.5 9274.7 -5376.1 9279.7 -5372.5"/>
      <path class="st3" d="M9274.7-5376.1l5,3.6h0s13.4,9.5,13.4,9.5l-6.5,7.6-21.3-15c-9.4,6.3-21.2,9.4-35.5,9.4s-20.2-1.8-28.3-5.5c-8.1-3.7-14.9-8.6-20.3-14.8-5.4-6.2-9.4-13.3-12.1-21.4-2.7-8.1-4-16.6-4-25.6s1.3-17.5,4-25.6c2.7-8.1,6.7-15.3,12.1-21.5,5.4-6.2,12.1-11.2,20.3-14.9,8.1-3.7,17.6-5.5,28.3-5.5s20.2,1.8,28.3,5.5c8.1,3.7,14.8,8.6,20.2,14.9,5.4,6.2,9.4,13.4,12.1,21.5,2.7,8.1,4.1,16.6,4.1,25.6s-1.7,19.7-5.2,28.6c-1.5,3.9-3.4,7.6-5.6,11l-10-7.2c1.5-2.5,2.7-5.2,3.7-8,2.7-7.8,4.1-16,4.1-24.3s-1-14.1-3-20.8c-2-6.8-5.1-12.8-9.2-18.2-4.1-5.4-9.5-9.7-15.9-13-6.5-3.3-14.3-4.9-23.4-4.9s-16.9,1.6-23.4,4.9c-6.5,3.3-11.9,7.6-16.1,13-4.1,5.4-7.2,11.4-9.2,18.2-2,6.8-3,13.7-3,20.8s1,13.9,3,20.8c2,6.8,5.1,12.9,9.2,18.3,4.2,5.4,9.5,9.7,16.1,13,6.5,3.3,14.3,4.9,23.4,4.9s18.2-2.1,25.4-6.3l-18.1-12.9,6.7-7.8,20,14.3h0s9.8,7.1,9.8,7.1l1.2.8Z"/>
      <rect class="st3" x="9065" y="-5374" width="82.4" height="10.5"/>
      <rect class="st3" x="9080.7" y="-5435.7" width="60.6" height="10.5"/>
      <rect class="st3" x="9064.8" y="-5374.2" width=".2" height=".2"/>
      <polygon class="st3" points="9051.7 -5482.4 9051.7 -5374.2 9064.8 -5374.2 9064.8 -5419 9064.8 -5425.2 9064.8 -5435.7 9064.8 -5441.7 9064.8 -5482.4 9051.7 -5482.4"/>
    </g>
  </g>
  <g>
    <path class="st2" d="M7611.4-5594.2v337.4h-352.7v-337.4h352.7ZM7538.7-5318.4v-43.2h-148.5v-41.3h148.5v-43.2h-161.3v-42.1h161.3v-43.2h-161.4v42.9h-41.9v42.8h41.9v34.3h-48.5v60.1h48.5v32.9h161.4ZM7335.7-5498.2v-23.5h-22.3v23.5h22.3Z"/>
    <g>
      <rect class="st2" x="7741.8" y="-5492.9" width="81.5" height="10.5"/>
      <path class="st2" d="M8284.1-5471.6c1.9,4.6,2.9,9.8,2.9,15.6s-1,11-2.9,15.6c-1.9,4.6-4.7,8.5-8.3,11.7-3.6,3.2-7.9,5.6-12.9,7.3-5,1.6-10.6,2.4-16.7,2.4h-32v-10.5h29.1c9.1,0,16.5-2.2,22.1-6.5,5.6-4.3,8.5-11,8.5-19.9s-2.8-15.6-8.5-19.9c-5.6-4.4-13-6.5-22.1-6.5h-45v118.9h-13.1v-129.4h60.9c6.1,0,11.7.8,16.7,2.4,5,1.6,9.3,4.1,12.9,7.3,3.6,3.2,6.4,7.1,8.3,11.7"/>
      <rect class="st2" x="8137" y="-5492.9" width="13.1" height="129.4"/>
      <path class="st2" d="M8103.2-5492.9v82.8c0,6.7-1,13-3,18.9-2,6-5.1,11.2-9.4,15.7-4.3,4.5-9.8,8-16.5,10.6-6.7,2.6-14.9,3.9-24.5,3.9s-17.6-1.3-24.3-3.9c-6.7-2.6-12.2-6.1-16.5-10.6-4.3-4.5-7.4-9.7-9.4-15.7-2-6-3-12.3-3-18.9v-82.8h13.1v80.1c0,7.5.9,13.9,2.7,19.1,1.8,5.3,4.4,9.5,7.9,12.9,3.4,3.3,7.7,5.7,12.7,7.3,5,1.5,10.6,2.3,16.9,2.3s12.1-.8,17.1-2.3c5-1.5,9.2-3.9,12.7-7.3,3.4-3.3,6.1-7.6,7.9-12.9,1.8-5.3,2.7-11.6,2.7-19.1v-80.1h13.1Z"/>
      <polygon class="st2" points="7956.5 -5372.5 7956.4 -5372.5 7951.5 -5376.1 7956.5 -5372.5"/>
      <path class="st2" d="M7951.4-5376.1l5,3.6h0s13.4,9.5,13.4,9.5l-6.5,7.6-21.3-15c-9.4,6.3-21.2,9.4-35.5,9.4s-20.2-1.8-28.3-5.5c-8.1-3.7-14.9-8.6-20.3-14.8-5.4-6.2-9.4-13.3-12.1-21.4-2.7-8.1-4-16.6-4-25.6s1.3-17.5,4-25.6c2.7-8.1,6.7-15.3,12.1-21.5,5.4-6.2,12.1-11.2,20.3-14.9,8.1-3.7,17.6-5.5,28.3-5.5s20.2,1.8,28.3,5.5c8.1,3.7,14.8,8.6,20.2,14.9,5.4,6.2,9.4,13.4,12.1,21.5,2.7,8.1,4.1,16.6,4.1,25.6s-1.7,19.7-5.2,28.6c-1.5,3.9-3.4,7.6-5.6,11l-10-7.2c1.5-2.5,2.7-5.2,3.7-8,2.7-7.8,4.1-16,4.1-24.3s-1-14.1-3-20.8c-2-6.8-5.1-12.8-9.2-18.2-4.1-5.4-9.5-9.7-15.9-13-6.5-3.3-14.3-4.9-23.4-4.9s-16.9,1.6-23.4,4.9c-6.5,3.3-11.9,7.6-16.1,13-4.1,5.4-7.2,11.4-9.2,18.2-2,6.8-3,13.7-3,20.8s1,13.9,3,20.8c2,6.8,5.1,12.9,9.2,18.3,4.2,5.4,9.5,9.7,16.1,13,6.5,3.3,14.3,4.9,23.4,4.9s18.2-2.1,25.4-6.3l-18.1-12.9,6.7-7.8,20,14.3h0s9.8,7.1,9.8,7.1l1.2.8Z"/>
      <rect class="st2" x="7741.8" y="-5374" width="82.4" height="10.5"/>
      <rect class="st2" x="7757.5" y="-5435.7" width="60.6" height="10.5"/>
      <rect class="st2" x="7741.6" y="-5374.2" width=".2" height=".2"/>
      <polygon class="st2" points="7728.5 -5482.4 7728.5 -5374.2 7741.6 -5374.2 7741.6 -5419 7741.6 -5425.2 7741.6 -5435.7 7741.6 -5441.7 7741.6 -5482.4 7728.5 -5482.4"/>
    </g>
  </g>
  <g>
    <path class="st1" d="M7611.4-6284.4v337.4h-352.7v-337.4h352.7ZM7538.7-6008.6v-43.2h-148.5v-41.3h148.5v-43.2h-161.3v-42h161.3v-43.2h-161.4v42.9h-41.9v42.8h41.9v34.3h-48.5v60.1h48.5v32.9h161.4ZM7335.7-6188.4v-23.5h-22.3v23.5h22.3Z"/>
    <g>
      <rect class="st1" x="7741.8" y="-6183.1" width="81.5" height="10.5"/>
      <path class="st1" d="M8284.1-6161.7c1.9,4.6,2.9,9.8,2.9,15.6s-1,11-2.9,15.6c-1.9,4.6-4.7,8.5-8.3,11.7-3.6,3.2-7.9,5.6-12.9,7.3-5,1.6-10.6,2.4-16.7,2.4h-32v-10.5h29.1c9.1,0,16.5-2.2,22.1-6.5,5.6-4.3,8.5-11,8.5-19.9s-2.8-15.6-8.5-19.9c-5.6-4.4-13-6.5-22.1-6.5h-45v118.9h-13.1v-129.4h60.9c6.1,0,11.7.8,16.7,2.4,5,1.6,9.3,4.1,12.9,7.3,3.6,3.2,6.4,7.1,8.3,11.7"/>
      <rect class="st1" x="8137" y="-6183.1" width="13.1" height="129.4"/>
      <path class="st1" d="M8103.2-6183.1v82.8c0,6.7-1,13-3,18.9-2,6-5.1,11.2-9.4,15.7-4.3,4.5-9.8,8-16.5,10.6-6.7,2.6-14.9,3.9-24.5,3.9s-17.6-1.3-24.3-3.9c-6.7-2.6-12.2-6.1-16.5-10.6-4.3-4.5-7.4-9.7-9.4-15.7-2-6-3-12.3-3-18.9v-82.8h13.1v80.1c0,7.5.9,13.9,2.7,19.1,1.8,5.3,4.4,9.5,7.9,12.9,3.4,3.3,7.7,5.7,12.7,7.3,5,1.5,10.6,2.3,16.9,2.3s12.1-.8,17.1-2.3c5-1.5,9.2-3.9,12.7-7.3,3.4-3.3,6.1-7.6,7.9-12.9,1.8-5.3,2.7-11.6,2.7-19.1v-80.1h13.1Z"/>
      <polygon class="st1" points="7956.5 -6062.7 7956.4 -6062.6 7951.5 -6066.2 7956.5 -6062.7"/>
      <path class="st1" d="M7951.4-6066.2l5,3.6h0s13.4,9.5,13.4,9.5l-6.5,7.6-21.3-15c-9.4,6.3-21.2,9.4-35.5,9.4s-20.2-1.8-28.3-5.5c-8.1-3.7-14.9-8.6-20.3-14.8-5.4-6.2-9.4-13.3-12.1-21.4-2.7-8.1-4-16.6-4-25.6s1.3-17.5,4-25.6c2.7-8.1,6.7-15.3,12.1-21.5,5.4-6.2,12.1-11.2,20.3-14.9,8.1-3.7,17.6-5.5,28.3-5.5s20.2,1.8,28.3,5.5c8.1,3.7,14.8,8.6,20.2,14.9,5.4,6.2,9.4,13.4,12.1,21.5,2.7,8.1,4.1,16.6,4.1,25.6s-1.7,19.7-5.2,28.6c-1.5,3.9-3.4,7.6-5.6,11l-10-7.2c1.5-2.5,2.7-5.2,3.7-8,2.7-7.8,4.1-16,4.1-24.3s-1-14.1-3-20.8c-2-6.8-5.1-12.8-9.2-18.2-4.1-5.4-9.5-9.7-15.9-13-6.5-3.3-14.3-4.9-23.4-4.9s-16.9,1.6-23.4,4.9c-6.5,3.3-11.9,7.6-16.1,13-4.1,5.4-7.2,11.4-9.2,18.2-2,6.8-3,13.7-3,20.8s1,13.9,3,20.8c2,6.8,5.1,12.9,9.2,18.3,4.2,5.4,9.5,9.7,16.1,13,6.5,3.3,14.3,4.9,23.4,4.9s18.2-2.1,25.4-6.3l-18.1-12.9,6.7-7.8,20,14.3h0s9.8,7.1,9.8,7.1l1.2.8Z"/>
      <rect class="st1" x="7741.8" y="-6064.2" width="82.4" height="10.5"/>
      <rect class="st1" x="7757.5" y="-6125.8" width="60.6" height="10.5"/>
      <rect class="st1" x="7741.6" y="-6064.4" width=".2" height=".2"/>
      <polygon class="st1" points="7728.5 -6172.6 7728.5 -6064.4 7741.6 -6064.4 7741.6 -6109.1 7741.6 -6115.3 7741.6 -6125.8 7741.6 -6131.9 7741.6 -6172.6 7728.5 -6172.6"/>
    </g>
  </g>
  <g>
    <path d="M6275.9-6284.4v337.4h-352.7v-337.4h352.7ZM6203.2-6008.6v-43.2h-148.5v-41.3h148.5v-43.2h-161.3v-42h161.3v-43.2h-161.4v42.9h-41.9v42.8h41.9v34.3h-48.5v60.1h48.5v32.9h161.4ZM6000.2-6188.4v-23.5h-22.3v23.5h22.3Z"/>
    <g>
      <rect x="6406.3" y="-6183.1" width="81.5" height="10.5"/>
      <path d="M6948.5-6161.7c1.9,4.6,2.9,9.8,2.9,15.6s-1,11-2.9,15.6c-1.9,4.6-4.7,8.5-8.3,11.7-3.6,3.2-7.9,5.6-12.9,7.3-5,1.6-10.6,2.4-16.7,2.4h-32v-10.5h29.1c9.1,0,16.5-2.2,22.1-6.5,5.6-4.3,8.5-11,8.5-19.9s-2.8-15.6-8.5-19.9c-5.6-4.4-13-6.5-22.1-6.5h-45v118.9h-13.1v-129.4h60.9c6.1,0,11.7.8,16.7,2.4,5,1.6,9.3,4.1,12.9,7.3,3.6,3.2,6.4,7.1,8.3,11.7"/>
      <rect x="6801.5" y="-6183.1" width="13.1" height="129.4"/>
      <path d="M6767.7-6183.1v82.8c0,6.7-1,13-3,18.9-2,6-5.1,11.2-9.4,15.7-4.3,4.5-9.8,8-16.5,10.6-6.7,2.6-14.9,3.9-24.5,3.9s-17.6-1.3-24.3-3.9c-6.7-2.6-12.2-6.1-16.5-10.6-4.3-4.5-7.4-9.7-9.4-15.7-2-6-3-12.3-3-18.9v-82.8h13.1v80.1c0,7.5.9,13.9,2.7,19.1,1.8,5.3,4.4,9.5,7.9,12.9,3.4,3.3,7.7,5.7,12.7,7.3,5,1.5,10.6,2.3,16.9,2.3s12.1-.8,17.1-2.3c5-1.5,9.2-3.9,12.7-7.3,3.4-3.3,6.1-7.6,7.9-12.9,1.8-5.3,2.7-11.6,2.7-19.1v-80.1h13.1Z"/>
      <polygon points="6620.9 -6062.7 6620.9 -6062.6 6615.9 -6066.2 6620.9 -6062.7"/>
      <path d="M6615.9-6066.2l5,3.6h0s13.4,9.5,13.4,9.5l-6.5,7.6-21.3-15c-9.4,6.3-21.2,9.4-35.5,9.4s-20.2-1.8-28.3-5.5c-8.1-3.7-14.9-8.6-20.3-14.8-5.4-6.2-9.4-13.3-12.1-21.4-2.7-8.1-4-16.6-4-25.6s1.3-17.5,4-25.6c2.7-8.1,6.7-15.3,12.1-21.5,5.4-6.2,12.1-11.2,20.3-14.9,8.1-3.7,17.6-5.5,28.3-5.5s20.2,1.8,28.3,5.5c8.1,3.7,14.8,8.6,20.2,14.9,5.4,6.2,9.4,13.4,12.1,21.5,2.7,8.1,4.1,16.6,4.1,25.6s-1.7,19.7-5.2,28.6c-1.5,3.9-3.4,7.6-5.6,11l-10-7.2c1.5-2.5,2.7-5.2,3.7-8,2.7-7.8,4.1-16,4.1-24.3s-1-14.1-3-20.8c-2-6.8-5.1-12.8-9.2-18.2-4.1-5.4-9.5-9.7-15.9-13-6.5-3.3-14.3-4.9-23.4-4.9s-16.9,1.6-23.4,4.9c-6.5,3.3-11.9,7.6-16.1,13-4.1,5.4-7.2,11.4-9.2,18.2-2,6.8-3,13.7-3,20.8s1,13.9,3,20.8c2,6.8,5.1,12.9,9.2,18.3,4.2,5.4,9.5,9.7,16.1,13,6.5,3.3,14.3,4.9,23.4,4.9s18.2-2.1,25.4-6.3l-18.1-12.9,6.7-7.8,20,14.3h0s9.8,7.1,9.8,7.1l1.2.8Z"/>
      <rect x="6406.3" y="-6064.2" width="82.4" height="10.5"/>
      <rect x="6421.9" y="-6125.8" width="60.6" height="10.5"/>
      <rect x="6406.1" y="-6064.4" width=".2" height=".2"/>
      <polygon points="6393 -6172.6 6393 -6064.4 6406.1 -6064.4 6406.1 -6109.1 6406.1 -6115.3 6406.1 -6125.8 6406.1 -6131.9 6406.1 -6172.6 6393 -6172.6"/>
    </g>
  </g>
  <g>
    <path class="st4" d="M6275.9-5594.2v337.4h-352.7v-337.4h352.7ZM6203.2-5318.4v-43.2h-148.5v-41.3h148.5v-43.2h-161.3v-42.1h161.3v-43.2h-161.4v42.9h-41.9v42.8h41.9v34.3h-48.5v60.1h48.5v32.9h161.4ZM6000.2-5498.2v-23.5h-22.3v23.5h22.3Z"/>
    <g>
      <rect class="st4" x="6406.3" y="-5492.9" width="81.5" height="10.5"/>
      <path class="st4" d="M6948.5-5471.6c1.9,4.6,2.9,9.8,2.9,15.6s-1,11-2.9,15.6c-1.9,4.6-4.7,8.5-8.3,11.7-3.6,3.2-7.9,5.6-12.9,7.3-5,1.6-10.6,2.4-16.7,2.4h-32v-10.5h29.1c9.1,0,16.5-2.2,22.1-6.5,5.6-4.3,8.5-11,8.5-19.9s-2.8-15.6-8.5-19.9c-5.6-4.4-13-6.5-22.1-6.5h-45v118.9h-13.1v-129.4h60.9c6.1,0,11.7.8,16.7,2.4,5,1.6,9.3,4.1,12.9,7.3,3.6,3.2,6.4,7.1,8.3,11.7"/>
      <rect class="st4" x="6801.5" y="-5492.9" width="13.1" height="129.4"/>
      <path class="st4" d="M6767.7-5492.9v82.8c0,6.7-1,13-3,18.9-2,6-5.1,11.2-9.4,15.7-4.3,4.5-9.8,8-16.5,10.6-6.7,2.6-14.9,3.9-24.5,3.9s-17.6-1.3-24.3-3.9c-6.7-2.6-12.2-6.1-16.5-10.6-4.3-4.5-7.4-9.7-9.4-15.7-2-6-3-12.3-3-18.9v-82.8h13.1v80.1c0,7.5.9,13.9,2.7,19.1,1.8,5.3,4.4,9.5,7.9,12.9,3.4,3.3,7.7,5.7,12.7,7.3,5,1.5,10.6,2.3,16.9,2.3s12.1-.8,17.1-2.3c5-1.5,9.2-3.9,12.7-7.3,3.4-3.3,6.1-7.6,7.9-12.9,1.8-5.3,2.7-11.6,2.7-19.1v-80.1h13.1Z"/>
      <polygon class="st4" points="6620.9 -5372.5 6620.9 -5372.5 6615.9 -5376.1 6620.9 -5372.5"/>
      <path class="st4" d="M6615.9-5376.1l5,3.6h0s13.4,9.5,13.4,9.5l-6.5,7.6-21.3-15c-9.4,6.3-21.2,9.4-35.5,9.4s-20.2-1.8-28.3-5.5c-8.1-3.7-14.9-8.6-20.3-14.8-5.4-6.2-9.4-13.3-12.1-21.4-2.7-8.1-4-16.6-4-25.6s1.3-17.5,4-25.6c2.7-8.1,6.7-15.3,12.1-21.5,5.4-6.2,12.1-11.2,20.3-14.9,8.1-3.7,17.6-5.5,28.3-5.5s20.2,1.8,28.3,5.5c8.1,3.7,14.8,8.6,20.2,14.9,5.4,6.2,9.4,13.4,12.1,21.5,2.7,8.1,4.1,16.6,4.1,25.6s-1.7,19.7-5.2,28.6c-1.5,3.9-3.4,7.6-5.6,11l-10-7.2c1.5-2.5,2.7-5.2,3.7-8,2.7-7.8,4.1-16,4.1-24.3s-1-14.1-3-20.8c-2-6.8-5.1-12.8-9.2-18.2-4.1-5.4-9.5-9.7-15.9-13-6.5-3.3-14.3-4.9-23.4-4.9s-16.9,1.6-23.4,4.9c-6.5,3.3-11.9,7.6-16.1,13-4.1,5.4-7.2,11.4-9.2,18.2-2,6.8-3,13.7-3,20.8s1,13.9,3,20.8c2,6.8,5.1,12.9,9.2,18.3,4.2,5.4,9.5,9.7,16.1,13,6.5,3.3,14.3,4.9,23.4,4.9s18.2-2.1,25.4-6.3l-18.1-12.9,6.7-7.8,20,14.3h0s9.8,7.1,9.8,7.1l1.2.8Z"/>
      <rect class="st4" x="6406.3" y="-5374" width="82.4" height="10.5"/>
      <rect class="st4" x="6421.9" y="-5435.7" width="60.6" height="10.5"/>
      <rect class="st4" x="6406.1" y="-5374.2" width=".2" height=".2"/>
      <polygon class="st4" points="6393 -5482.4 6393 -5374.2 6406.1 -5374.2 6406.1 -5419 6406.1 -5425.2 6406.1 -5435.7 6406.1 -5441.7 6406.1 -5482.4 6393 -5482.4"/>
    </g>
  </g>
  <rect class="st0" x="9718.3" y="-3425.9" width="1244.5" height="595.3"/>
  <g>
    <rect class="st2" x="9955.8" y="-3225.8" width="117.9" height="15.2"/>
    <path class="st2" d="M10740.4-3194.9c2.8,6.7,4.2,14.2,4.2,22.5s-1.4,15.9-4.2,22.6c-2.8,6.6-6.7,12.3-12,16.9-5.2,4.6-11.4,8.1-18.6,10.5-7.2,2.3-15.3,3.5-24.2,3.5h-46.3v-15.2h42.1c13.2,0,23.8-3.2,32-9.5,8.1-6.3,12.2-15.9,12.2-28.8s-4.1-22.5-12.2-28.8c-8.2-6.3-18.8-9.5-32-9.5h-65.1v172.1h-18.9v-187.3h88.2c8.9,0,17,1.2,24.2,3.5,7.2,2.4,13.4,5.9,18.6,10.5,5.2,4.6,9.2,10.3,12,16.9"/>
    <rect class="st2" x="10527.7" y="-3225.9" width="18.9" height="187.3"/>
    <path class="st2" d="M10478.7-3225.9v119.8c0,9.6-1.4,18.7-4.3,27.4-2.9,8.7-7.4,16.2-13.6,22.7-6.2,6.5-14.2,11.6-23.9,15.4-9.7,3.7-21.6,5.6-35.4,5.6s-25.5-1.9-35.2-5.6c-9.7-3.8-17.7-8.9-23.9-15.4-6.2-6.5-10.7-14-13.6-22.7-2.9-8.7-4.3-17.8-4.3-27.4v-119.8h18.9v115.9c0,10.8,1.3,20.1,3.9,27.7,2.6,7.6,6.4,13.8,11.4,18.6,5,4.8,11.1,8.3,18.3,10.5,7.2,2.2,15.4,3.3,24.5,3.3s17.5-1.1,24.7-3.3c7.2-2.2,13.4-5.7,18.4-10.5,5-4.8,8.8-11,11.4-18.6,2.6-7.6,3.9-16.8,3.9-27.7v-115.9h18.9Z"/>
    <polygon class="st2" points="10266.4 -3051.6 10266.3 -3051.6 10259.1 -3056.8 10266.4 -3051.6"/>
    <path class="st2" d="M10259.1-3056.8l7.2,5.2h0c0,0,19.4,13.8,19.4,13.8l-9.5,11-30.9-21.8c-13.5,9.1-30.7,13.6-51.4,13.6s-29.2-2.7-41-8c-11.8-5.3-21.6-12.4-29.3-21.4-7.8-8.9-13.6-19.2-17.5-31-3.9-11.7-5.8-24-5.8-37s1.9-25.3,5.8-37c3.9-11.7,9.7-22.1,17.5-31.1,7.8-9,17.6-16.1,29.3-21.5,11.8-5.3,25.4-8,41-8s29.2,2.7,40.9,8c11.7,5.3,21.4,12.5,29.2,21.5,7.8,9,13.6,19.4,17.5,31.1,3.9,11.7,5.9,24.1,5.9,37s-2.5,28.5-7.5,41.3c-2.2,5.7-4.9,11-8.2,16l-14.5-10.5c2.1-3.6,3.9-7.5,5.3-11.6,4-11.4,6-23.1,6-35.1s-1.4-20.4-4.3-30.2c-2.9-9.8-7.3-18.6-13.4-26.4-6-7.8-13.7-14-23.1-18.7-9.4-4.7-20.7-7.1-33.8-7.1s-24.4,2.4-33.9,7.1c-9.5,4.7-17.2,11-23.2,18.7-6,7.8-10.5,16.6-13.3,26.4-2.9,9.8-4.3,19.9-4.3,30.2s1.5,20.2,4.3,30c2.8,9.9,7.3,18.7,13.3,26.5,6,7.8,13.8,14,23.2,18.7,9.5,4.7,20.8,7.1,33.9,7.1s26.3-3.1,36.7-9.2l-26.1-18.6,9.7-11.3,28.9,20.7h0s14.1,10.2,14.1,10.2l1.7,1.2Z"/>
    <rect class="st2" x="9955.8" y="-3053.8" width="119.3" height="15.2"/>
    <rect class="st2" x="9978.4" y="-3143" width="87.7" height="15.2"/>
    <rect class="st2" x="9955.5" y="-3054.1" width=".3" height=".3"/>
    <polygon class="st2" points="9936.5 -3210.7 9936.5 -3054.1 9955.5 -3054.1 9955.5 -3118.8 9955.5 -3127.8 9955.5 -3143 9955.5 -3151.8 9955.5 -3210.7 9936.5 -3210.7"/>
  </g>
  <rect class="st3" x="8403.7" y="-3425.9" width="1244.5" height="595.3"/>
  <g>
    <rect class="st4" x="8641.1" y="-3225.8" width="117.9" height="15.2"/>
    <path class="st4" d="M9425.7-3194.9c2.8,6.7,4.2,14.2,4.2,22.5s-1.4,15.9-4.2,22.6c-2.8,6.6-6.7,12.3-12,16.9-5.2,4.6-11.4,8.1-18.6,10.5-7.2,2.3-15.3,3.5-24.2,3.5h-46.3v-15.2h42.1c13.2,0,23.8-3.2,32-9.5,8.1-6.3,12.2-15.9,12.2-28.8s-4.1-22.5-12.2-28.8c-8.2-6.3-18.8-9.5-32-9.5h-65.1v172.1h-18.9v-187.3h88.2c8.9,0,17,1.2,24.2,3.5,7.2,2.4,13.4,5.9,18.6,10.5,5.2,4.6,9.2,10.3,12,16.9"/>
    <rect class="st4" x="9213" y="-3225.9" width="18.9" height="187.3"/>
    <path class="st4" d="M9164.1-3225.9v119.8c0,9.6-1.4,18.7-4.3,27.4-2.9,8.7-7.4,16.2-13.6,22.7-6.2,6.5-14.2,11.6-23.9,15.4-9.7,3.7-21.6,5.6-35.4,5.6s-25.5-1.9-35.2-5.6c-9.7-3.8-17.7-8.9-23.9-15.4-6.2-6.5-10.7-14-13.6-22.7-2.9-8.7-4.3-17.8-4.3-27.4v-119.8h18.9v115.9c0,10.8,1.3,20.1,3.9,27.7,2.6,7.6,6.4,13.8,11.4,18.6,5,4.8,11.1,8.3,18.3,10.5,7.2,2.2,15.4,3.3,24.5,3.3s17.5-1.1,24.7-3.3c7.2-2.2,13.4-5.7,18.4-10.5,5-4.8,8.8-11,11.4-18.6,2.6-7.6,3.9-16.8,3.9-27.7v-115.9h18.9Z"/>
    <polygon class="st4" points="8951.7 -3051.6 8951.7 -3051.6 8944.5 -3056.8 8951.7 -3051.6"/>
    <path class="st4" d="M8944.5-3056.8l7.2,5.2h0c0,0,19.4,13.8,19.4,13.8l-9.5,11-30.9-21.8c-13.5,9.1-30.7,13.6-51.4,13.6s-29.2-2.7-41-8c-11.8-5.3-21.6-12.4-29.3-21.4-7.8-8.9-13.6-19.2-17.5-31-3.9-11.7-5.8-24-5.8-37s1.9-25.3,5.8-37c3.9-11.7,9.7-22.1,17.5-31.1,7.8-9,17.6-16.1,29.3-21.5,11.8-5.3,25.4-8,41-8s29.2,2.7,40.9,8c11.7,5.3,21.4,12.5,29.2,21.5,7.8,9,13.6,19.4,17.5,31.1,3.9,11.7,5.9,24.1,5.9,37s-2.5,28.5-7.5,41.3c-2.2,5.7-4.9,11-8.2,16l-14.5-10.5c2.1-3.6,3.9-7.5,5.3-11.6,4-11.4,6-23.1,6-35.1s-1.4-20.4-4.3-30.2c-2.9-9.8-7.3-18.6-13.4-26.4-6-7.8-13.7-14-23.1-18.7-9.4-4.7-20.7-7.1-33.8-7.1s-24.4,2.4-33.9,7.1c-9.5,4.7-17.2,11-23.2,18.7-6,7.8-10.5,16.6-13.3,26.4-2.9,9.8-4.3,19.9-4.3,30.2s1.5,20.2,4.3,30c2.8,9.9,7.3,18.7,13.3,26.5,6,7.8,13.8,14,23.2,18.7,9.5,4.7,20.8,7.1,33.9,7.1s26.3-3.1,36.7-9.2l-26.1-18.6,9.7-11.3,28.9,20.7h0s14.1,10.2,14.1,10.2l1.7,1.2Z"/>
    <rect class="st4" x="8641.1" y="-3053.8" width="119.3" height="15.2"/>
    <rect class="st4" x="8663.8" y="-3143" width="87.7" height="15.2"/>
    <rect class="st4" x="8640.8" y="-3054.1" width=".3" height=".3"/>
    <polygon class="st4" points="8621.9 -3210.7 8621.9 -3054.1 8640.8 -3054.1 8640.8 -3118.8 8640.8 -3127.8 8640.8 -3143 8640.8 -3151.8 8640.8 -3210.7 8621.9 -3210.7"/>
  </g>
  <rect class="st2" x="7102.6" y="-3425.9" width="1244.5" height="595.3"/>
  <g>
    <rect class="st4" x="7340.1" y="-3225.8" width="117.9" height="15.2"/>
    <path class="st4" d="M8124.7-3194.9c2.8,6.7,4.2,14.2,4.2,22.5s-1.4,15.9-4.2,22.6c-2.8,6.6-6.7,12.3-12,16.9-5.2,4.6-11.4,8.1-18.6,10.5-7.2,2.3-15.3,3.5-24.2,3.5h-46.3v-15.2h42.1c13.2,0,23.8-3.2,32-9.5,8.1-6.3,12.2-15.9,12.2-28.8s-4.1-22.5-12.2-28.8c-8.2-6.3-18.8-9.5-32-9.5h-65.1v172.1h-18.9v-187.3h88.2c8.9,0,17,1.2,24.2,3.5,7.2,2.4,13.4,5.9,18.6,10.5,5.2,4.6,9.2,10.3,12,16.9"/>
    <rect class="st4" x="7912" y="-3225.9" width="18.9" height="187.3"/>
    <path class="st4" d="M7863-3225.9v119.8c0,9.6-1.4,18.7-4.3,27.4-2.9,8.7-7.4,16.2-13.6,22.7-6.2,6.5-14.2,11.6-23.9,15.4-9.7,3.7-21.6,5.6-35.4,5.6s-25.5-1.9-35.2-5.6c-9.7-3.8-17.7-8.9-23.9-15.4-6.2-6.5-10.7-14-13.6-22.7-2.9-8.7-4.3-17.8-4.3-27.4v-119.8h18.9v115.9c0,10.8,1.3,20.1,3.9,27.7,2.6,7.6,6.4,13.8,11.4,18.6,5,4.8,11.1,8.3,18.3,10.5,7.2,2.2,15.4,3.3,24.5,3.3s17.5-1.1,24.7-3.3c7.2-2.2,13.4-5.7,18.4-10.5,5-4.8,8.8-11,11.4-18.6,2.6-7.6,3.9-16.8,3.9-27.7v-115.9h18.9Z"/>
    <polygon class="st4" points="7650.7 -3051.6 7650.6 -3051.6 7643.4 -3056.8 7650.7 -3051.6"/>
    <path class="st4" d="M7643.4-3056.8l7.2,5.2h0c0,0,19.4,13.8,19.4,13.8l-9.5,11-30.9-21.8c-13.5,9.1-30.7,13.6-51.4,13.6s-29.2-2.7-41-8c-11.8-5.3-21.6-12.4-29.3-21.4-7.8-8.9-13.6-19.2-17.5-31-3.9-11.7-5.8-24-5.8-37s1.9-25.3,5.8-37c3.9-11.7,9.7-22.1,17.5-31.1,7.8-9,17.6-16.1,29.3-21.5,11.8-5.3,25.4-8,41-8s29.2,2.7,40.9,8c11.7,5.3,21.4,12.5,29.2,21.5,7.8,9,13.6,19.4,17.5,31.1,3.9,11.7,5.9,24.1,5.9,37s-2.5,28.5-7.5,41.3c-2.2,5.7-4.9,11-8.2,16l-14.5-10.5c2.1-3.6,3.9-7.5,5.3-11.6,4-11.4,6-23.1,6-35.1s-1.4-20.4-4.3-30.2c-2.9-9.8-7.3-18.6-13.4-26.4-6-7.8-13.7-14-23.1-18.7-9.4-4.7-20.7-7.1-33.8-7.1s-24.4,2.4-33.9,7.1c-9.5,4.7-17.2,11-23.2,18.7-6,7.8-10.5,16.6-13.3,26.4-2.9,9.8-4.3,19.9-4.3,30.2s1.5,20.2,4.3,30c2.8,9.9,7.3,18.7,13.3,26.5,6,7.8,13.8,14,23.2,18.7,9.5,4.7,20.8,7.1,33.9,7.1s26.3-3.1,36.7-9.2l-26.1-18.6,9.7-11.3,28.9,20.7h0s14.1,10.2,14.1,10.2l1.7,1.2Z"/>
    <rect class="st4" x="7340.1" y="-3053.8" width="119.3" height="15.2"/>
    <rect class="st4" x="7362.7" y="-3143" width="87.7" height="15.2"/>
    <rect class="st4" x="7339.8" y="-3054.1" width=".3" height=".3"/>
    <polygon class="st4" points="7320.8 -3210.7 7320.8 -3054.1 7339.8 -3054.1 7339.8 -3118.8 7339.8 -3127.8 7339.8 -3143 7339.8 -3151.8 7339.8 -3210.7 7320.8 -3210.7"/>
  </g>
  <g>
    <rect class="st3" x="8641.1" y="-2514.3" width="117.9" height="15.2"/>
    <path class="st3" d="M9425.7-2483.4c2.8,6.7,4.2,14.2,4.2,22.5s-1.4,15.9-4.2,22.6c-2.8,6.6-6.7,12.3-12,16.9-5.2,4.6-11.4,8.1-18.6,10.5-7.2,2.3-15.3,3.5-24.2,3.5h-46.3v-15.2h42.1c13.2,0,23.8-3.2,32-9.5,8.1-6.3,12.2-15.9,12.2-28.8s-4.1-22.5-12.2-28.8c-8.2-6.3-18.8-9.5-32-9.5h-65.1v172.1h-18.9v-187.3h88.2c8.9,0,17,1.2,24.2,3.5,7.2,2.4,13.4,5.9,18.6,10.5,5.2,4.6,9.2,10.3,12,16.9"/>
    <rect class="st3" x="9213" y="-2514.3" width="18.9" height="187.3"/>
    <path class="st3" d="M9164.1-2514.3v119.8c0,9.6-1.4,18.7-4.3,27.4-2.9,8.7-7.4,16.2-13.6,22.7-6.2,6.5-14.2,11.6-23.9,15.4-9.7,3.7-21.6,5.6-35.4,5.6s-25.5-1.9-35.2-5.6c-9.7-3.8-17.7-8.9-23.9-15.4-6.2-6.5-10.7-14-13.6-22.7-2.9-8.7-4.3-17.8-4.3-27.4v-119.8h18.9v115.9c0,10.8,1.3,20.1,3.9,27.7,2.6,7.6,6.4,13.8,11.4,18.6,5,4.8,11.1,8.3,18.3,10.5,7.2,2.2,15.4,3.3,24.5,3.3s17.5-1.1,24.7-3.3c7.2-2.2,13.4-5.7,18.4-10.5,5-4.8,8.8-11,11.4-18.6,2.6-7.6,3.9-16.8,3.9-27.7v-115.9h18.9Z"/>
    <polygon class="st3" points="8951.7 -2340.1 8951.7 -2340.1 8944.5 -2345.3 8951.7 -2340.1"/>
    <path class="st3" d="M8944.5-2345.3l7.2,5.2h0c0,0,19.4,13.8,19.4,13.8l-9.5,11-30.9-21.8c-13.5,9.1-30.7,13.6-51.4,13.6s-29.2-2.7-41-8c-11.8-5.3-21.6-12.4-29.3-21.4-7.8-8.9-13.6-19.2-17.5-31-3.9-11.7-5.8-24-5.8-37s1.9-25.3,5.8-37c3.9-11.7,9.7-22.1,17.5-31.1,7.8-9,17.6-16.1,29.3-21.5,11.8-5.3,25.4-8,41-8s29.2,2.7,40.9,8c11.7,5.3,21.4,12.5,29.2,21.5,7.8,9,13.6,19.4,17.5,31.1,3.9,11.7,5.9,24.1,5.9,37s-2.5,28.5-7.5,41.3c-2.2,5.7-4.9,11-8.2,16l-14.5-10.5c2.1-3.6,3.9-7.5,5.3-11.6,4-11.4,6-23.1,6-35.1s-1.4-20.4-4.3-30.2c-2.9-9.8-7.3-18.6-13.4-26.4-6-7.8-13.7-14-23.1-18.7-9.4-4.7-20.7-7.1-33.8-7.1s-24.4,2.4-33.9,7.1c-9.5,4.7-17.2,11-23.2,18.7-6,7.8-10.5,16.6-13.3,26.4-2.9,9.8-4.3,19.9-4.3,30.2s1.5,20.2,4.3,30c2.8,9.9,7.3,18.7,13.3,26.5,6,7.8,13.8,14,23.2,18.7,9.5,4.7,20.8,7.1,33.9,7.1s26.3-3.1,36.7-9.2l-26.1-18.6,9.7-11.3,28.9,20.7h0s14.1,10.2,14.1,10.2l1.7,1.2Z"/>
    <rect class="st3" x="8641.1" y="-2342.3" width="119.3" height="15.2"/>
    <rect class="st3" x="8663.8" y="-2431.5" width="87.7" height="15.2"/>
    <rect class="st3" x="8640.8" y="-2342.6" width=".3" height=".3"/>
    <polygon class="st3" points="8621.9 -2499.1 8621.9 -2342.6 8640.8 -2342.6 8640.8 -2407.3 8640.8 -2416.3 8640.8 -2431.5 8640.8 -2440.3 8640.8 -2499.1 8621.9 -2499.1"/>
  </g>
  <g>
    <rect class="st4" x="7340.1" y="-2514.3" width="117.9" height="15.2"/>
    <path class="st4" d="M8124.7-2483.4c2.8,6.7,4.2,14.2,4.2,22.5s-1.4,15.9-4.2,22.6c-2.8,6.6-6.7,12.3-12,16.9-5.2,4.6-11.4,8.1-18.6,10.5-7.2,2.3-15.3,3.5-24.2,3.5h-46.3v-15.2h42.1c13.2,0,23.8-3.2,32-9.5,8.1-6.3,12.2-15.9,12.2-28.8s-4.1-22.5-12.2-28.8c-8.2-6.3-18.8-9.5-32-9.5h-65.1v172.1h-18.9v-187.3h88.2c8.9,0,17,1.2,24.2,3.5,7.2,2.4,13.4,5.9,18.6,10.5,5.2,4.6,9.2,10.3,12,16.9"/>
    <rect class="st4" x="7912" y="-2514.3" width="18.9" height="187.3"/>
    <path class="st4" d="M7863-2514.3v119.8c0,9.6-1.4,18.7-4.3,27.4-2.9,8.7-7.4,16.2-13.6,22.7-6.2,6.5-14.2,11.6-23.9,15.4-9.7,3.7-21.6,5.6-35.4,5.6s-25.5-1.9-35.2-5.6c-9.7-3.8-17.7-8.9-23.9-15.4-6.2-6.5-10.7-14-13.6-22.7-2.9-8.7-4.3-17.8-4.3-27.4v-119.8h18.9v115.9c0,10.8,1.3,20.1,3.9,27.7,2.6,7.6,6.4,13.8,11.4,18.6,5,4.8,11.1,8.3,18.3,10.5,7.2,2.2,15.4,3.3,24.5,3.3s17.5-1.1,24.7-3.3c7.2-2.2,13.4-5.7,18.4-10.5,5-4.8,8.8-11,11.4-18.6,2.6-7.6,3.9-16.8,3.9-27.7v-115.9h18.9Z"/>
    <polygon class="st4" points="7650.7 -2340.1 7650.6 -2340.1 7643.4 -2345.3 7650.7 -2340.1"/>
    <path class="st4" d="M7643.4-2345.3l7.2,5.2h0c0,0,19.4,13.8,19.4,13.8l-9.5,11-30.9-21.8c-13.5,9.1-30.7,13.6-51.4,13.6s-29.2-2.7-41-8c-11.8-5.3-21.6-12.4-29.3-21.4-7.8-8.9-13.6-19.2-17.5-31-3.9-11.7-5.8-24-5.8-37s1.9-25.3,5.8-37c3.9-11.7,9.7-22.1,17.5-31.1,7.8-9,17.6-16.1,29.3-21.5,11.8-5.3,25.4-8,41-8s29.2,2.7,40.9,8c11.7,5.3,21.4,12.5,29.2,21.5,7.8,9,13.6,19.4,17.5,31.1,3.9,11.7,5.9,24.1,5.9,37s-2.5,28.5-7.5,41.3c-2.2,5.7-4.9,11-8.2,16l-14.5-10.5c2.1-3.6,3.9-7.5,5.3-11.6,4-11.4,6-23.1,6-35.1s-1.4-20.4-4.3-30.2c-2.9-9.8-7.3-18.6-13.4-26.4-6-7.8-13.7-14-23.1-18.7-9.4-4.7-20.7-7.1-33.8-7.1s-24.4,2.4-33.9,7.1c-9.5,4.7-17.2,11-23.2,18.7-6,7.8-10.5,16.6-13.3,26.4-2.9,9.8-4.3,19.9-4.3,30.2s1.5,20.2,4.3,30c2.8,9.9,7.3,18.7,13.3,26.5,6,7.8,13.8,14,23.2,18.7,9.5,4.7,20.8,7.1,33.9,7.1s26.3-3.1,36.7-9.2l-26.1-18.6,9.7-11.3,28.9,20.7h0s14.1,10.2,14.1,10.2l1.7,1.2Z"/>
    <rect class="st4" x="7340.1" y="-2342.3" width="119.3" height="15.2"/>
    <rect class="st4" x="7362.7" y="-2431.5" width="87.7" height="15.2"/>
    <rect class="st4" x="7339.8" y="-2342.6" width=".3" height=".3"/>
    <polygon class="st4" points="7320.8 -2499.1 7320.8 -2342.6 7339.8 -2342.6 7339.8 -2407.3 7339.8 -2416.3 7339.8 -2431.5 7339.8 -2440.3 7339.8 -2499.1 7320.8 -2499.1"/>
  </g>
  <g>
    <rect class="st1" x="7340.1" y="-1762.1" width="117.9" height="15.2"/>
    <path class="st1" d="M8124.7-1731.2c2.8,6.7,4.2,14.2,4.2,22.5s-1.4,15.9-4.2,22.6c-2.8,6.6-6.7,12.3-12,16.9-5.2,4.6-11.4,8.1-18.6,10.5-7.2,2.3-15.3,3.5-24.2,3.5h-46.3v-15.2h42.1c13.2,0,23.8-3.2,32-9.5,8.1-6.3,12.2-15.9,12.2-28.8s-4.1-22.5-12.2-28.8c-8.2-6.3-18.8-9.5-32-9.5h-65.1v172.1h-18.9v-187.3h88.2c8.9,0,17,1.2,24.2,3.5,7.2,2.4,13.4,5.9,18.6,10.5,5.2,4.6,9.2,10.3,12,16.9"/>
    <rect class="st1" x="7912" y="-1762.1" width="18.9" height="187.3"/>
    <path class="st1" d="M7863-1762.1v119.8c0,9.6-1.4,18.7-4.3,27.4-2.9,8.7-7.4,16.2-13.6,22.7-6.2,6.5-14.2,11.6-23.9,15.4-9.7,3.7-21.6,5.6-35.4,5.6s-25.5-1.9-35.2-5.6c-9.7-3.8-17.7-8.9-23.9-15.4-6.2-6.5-10.7-14-13.6-22.7-2.9-8.7-4.3-17.8-4.3-27.4v-119.8h18.9v115.9c0,10.8,1.3,20.1,3.9,27.7,2.6,7.6,6.4,13.8,11.4,18.6,5,4.8,11.1,8.3,18.3,10.5,7.2,2.2,15.4,3.3,24.5,3.3s17.5-1.1,24.7-3.3c7.2-2.2,13.4-5.7,18.4-10.5,5-4.8,8.8-11,11.4-18.6,2.6-7.6,3.9-16.8,3.9-27.7v-115.9h18.9Z"/>
    <polygon class="st1" points="7650.7 -1587.9 7650.6 -1587.9 7643.4 -1593.1 7650.7 -1587.9"/>
    <path class="st1" d="M7643.4-1593.1l7.2,5.2h0c0,0,19.4,13.8,19.4,13.8l-9.5,11-30.9-21.8c-13.5,9.1-30.7,13.6-51.4,13.6s-29.2-2.7-41-8c-11.8-5.3-21.6-12.4-29.3-21.4-7.8-8.9-13.6-19.2-17.5-31-3.9-11.7-5.8-24-5.8-37s1.9-25.3,5.8-37c3.9-11.7,9.7-22.1,17.5-31.1,7.8-9,17.6-16.1,29.3-21.5,11.8-5.3,25.4-8,41-8s29.2,2.7,40.9,8c11.7,5.3,21.4,12.5,29.2,21.5,7.8,9,13.6,19.4,17.5,31.1,3.9,11.7,5.9,24.1,5.9,37s-2.5,28.5-7.5,41.3c-2.2,5.7-4.9,11-8.2,16l-14.5-10.5c2.1-3.6,3.9-7.5,5.3-11.6,4-11.4,6-23.1,6-35.1s-1.4-20.4-4.3-30.2c-2.9-9.8-7.3-18.6-13.4-26.4-6-7.8-13.7-14-23.1-18.7-9.4-4.7-20.7-7.1-33.8-7.1s-24.4,2.4-33.9,7.1c-9.5,4.7-17.2,11-23.2,18.7-6,7.8-10.5,16.6-13.3,26.4-2.9,9.8-4.3,19.9-4.3,30.2s1.5,20.2,4.3,30c2.8,9.9,7.3,18.7,13.3,26.5,6,7.8,13.8,14,23.2,18.7,9.5,4.7,20.8,7.1,33.9,7.1s26.3-3.1,36.7-9.2l-26.1-18.6,9.7-11.3,28.9,20.7h0s14.1,10.2,14.1,10.2l1.7,1.2Z"/>
    <rect class="st1" x="7340.1" y="-1590.1" width="119.3" height="15.2"/>
    <rect class="st1" x="7362.7" y="-1679.3" width="87.7" height="15.2"/>
    <rect class="st1" x="7339.8" y="-1590.4" width=".3" height=".3"/>
    <polygon class="st1" points="7320.8 -1746.9 7320.8 -1590.4 7339.8 -1590.4 7339.8 -1655.1 7339.8 -1664.1 7339.8 -1679.3 7339.8 -1688.1 7339.8 -1746.9 7320.8 -1746.9"/>
  </g>
  <g>
    <rect x="6052.5" y="-1762.1" width="117.9" height="15.2"/>
    <path d="M6837.1-1731.2c2.8,6.7,4.2,14.2,4.2,22.5s-1.4,15.9-4.2,22.6c-2.8,6.6-6.7,12.3-12,16.9-5.2,4.6-11.4,8.1-18.6,10.5-7.2,2.3-15.3,3.5-24.2,3.5h-46.3v-15.2h42.1c13.2,0,23.8-3.2,32-9.5,8.1-6.3,12.2-15.9,12.2-28.8s-4.1-22.5-12.2-28.8c-8.2-6.3-18.8-9.5-32-9.5h-65.1v172.1h-18.9v-187.3h88.2c8.9,0,17,1.2,24.2,3.5,7.2,2.4,13.4,5.9,18.6,10.5,5.2,4.6,9.2,10.3,12,16.9"/>
    <rect x="6624.4" y="-1762.1" width="18.9" height="187.3"/>
    <path d="M6575.5-1762.1v119.8c0,9.6-1.4,18.7-4.3,27.4-2.9,8.7-7.4,16.2-13.6,22.7-6.2,6.5-14.2,11.6-23.9,15.4-9.7,3.7-21.6,5.6-35.4,5.6s-25.5-1.9-35.2-5.6c-9.7-3.8-17.7-8.9-23.9-15.4-6.2-6.5-10.7-14-13.6-22.7-2.9-8.7-4.3-17.8-4.3-27.4v-119.8h18.9v115.9c0,10.8,1.3,20.1,3.9,27.7,2.6,7.6,6.4,13.8,11.4,18.6,5,4.8,11.1,8.3,18.3,10.5,7.2,2.2,15.4,3.3,24.5,3.3s17.5-1.1,24.7-3.3c7.2-2.2,13.4-5.7,18.4-10.5,5-4.8,8.8-11,11.4-18.6,2.6-7.6,3.9-16.8,3.9-27.7v-115.9h18.9Z"/>
    <polygon points="6363.1 -1587.9 6363.1 -1587.9 6355.9 -1593.1 6363.1 -1587.9"/>
    <path d="M6355.9-1593.1l7.2,5.2h0c0,0,19.4,13.8,19.4,13.8l-9.5,11-30.9-21.8c-13.5,9.1-30.7,13.6-51.4,13.6s-29.2-2.7-41-8c-11.8-5.3-21.6-12.4-29.3-21.4-7.8-8.9-13.6-19.2-17.5-31-3.9-11.7-5.8-24-5.8-37s1.9-25.3,5.8-37c3.9-11.7,9.7-22.1,17.5-31.1,7.8-9,17.6-16.1,29.3-21.5,11.8-5.3,25.4-8,41-8s29.2,2.7,40.9,8c11.7,5.3,21.4,12.5,29.2,21.5,7.8,9,13.6,19.4,17.5,31.1,3.9,11.7,5.9,24.1,5.9,37s-2.5,28.5-7.5,41.3c-2.2,5.7-4.9,11-8.2,16l-14.5-10.5c2.1-3.6,3.9-7.5,5.3-11.6,4-11.4,6-23.1,6-35.1s-1.4-20.4-4.3-30.2c-2.9-9.8-7.3-18.6-13.4-26.4-6-7.8-13.7-14-23.1-18.7-9.4-4.7-20.7-7.1-33.8-7.1s-24.4,2.4-33.9,7.1c-9.5,4.7-17.2,11-23.2,18.7-6,7.8-10.5,16.6-13.3,26.4-2.9,9.8-4.3,19.9-4.3,30.2s1.5,20.2,4.3,30c2.8,9.9,7.3,18.7,13.3,26.5,6,7.8,13.8,14,23.2,18.7,9.5,4.7,20.8,7.1,33.9,7.1s26.3-3.1,36.7-9.2l-26.1-18.6,9.7-11.3,28.9,20.7h0s14.1,10.2,14.1,10.2l1.7,1.2Z"/>
    <rect x="6052.5" y="-1590.1" width="119.3" height="15.2"/>
    <rect x="6075.2" y="-1679.3" width="87.7" height="15.2"/>
    <rect x="6052.2" y="-1590.4" width=".3" height=".3"/>
    <polygon points="6033.3 -1746.9 6033.3 -1590.4 6052.2 -1590.4 6052.2 -1655.1 6052.2 -1664.1 6052.2 -1679.3 6052.2 -1688.1 6052.2 -1746.9 6033.3 -1746.9"/>
  </g>
  <g>
    <rect class="st2" x="6052.5" y="-2514.3" width="117.9" height="15.2"/>
    <path class="st2" d="M6837.1-2483.4c2.8,6.7,4.2,14.2,4.2,22.5s-1.4,15.9-4.2,22.6c-2.8,6.6-6.7,12.3-12,16.9-5.2,4.6-11.4,8.1-18.6,10.5-7.2,2.3-15.3,3.5-24.2,3.5h-46.3v-15.2h42.1c13.2,0,23.8-3.2,32-9.5,8.1-6.3,12.2-15.9,12.2-28.8s-4.1-22.5-12.2-28.8c-8.2-6.3-18.8-9.5-32-9.5h-65.1v172.1h-18.9v-187.3h88.2c8.9,0,17,1.2,24.2,3.5,7.2,2.4,13.4,5.9,18.6,10.5,5.2,4.6,9.2,10.3,12,16.9"/>
    <rect class="st2" x="6624.4" y="-2514.3" width="18.9" height="187.3"/>
    <path class="st2" d="M6575.5-2514.3v119.8c0,9.6-1.4,18.7-4.3,27.4-2.9,8.7-7.4,16.2-13.6,22.7-6.2,6.5-14.2,11.6-23.9,15.4-9.7,3.7-21.6,5.6-35.4,5.6s-25.5-1.9-35.2-5.6c-9.7-3.8-17.7-8.9-23.9-15.4-6.2-6.5-10.7-14-13.6-22.7-2.9-8.7-4.3-17.8-4.3-27.4v-119.8h18.9v115.9c0,10.8,1.3,20.1,3.9,27.7,2.6,7.6,6.4,13.8,11.4,18.6,5,4.8,11.1,8.3,18.3,10.5,7.2,2.2,15.4,3.3,24.5,3.3s17.5-1.1,24.7-3.3c7.2-2.2,13.4-5.7,18.4-10.5,5-4.8,8.8-11,11.4-18.6,2.6-7.6,3.9-16.8,3.9-27.7v-115.9h18.9Z"/>
    <polygon class="st2" points="6363.1 -2340.1 6363.1 -2340.1 6355.9 -2345.3 6363.1 -2340.1"/>
    <path class="st2" d="M6355.9-2345.3l7.2,5.2h0c0,0,19.4,13.8,19.4,13.8l-9.5,11-30.9-21.8c-13.5,9.1-30.7,13.6-51.4,13.6s-29.2-2.7-41-8c-11.8-5.3-21.6-12.4-29.3-21.4-7.8-8.9-13.6-19.2-17.5-31-3.9-11.7-5.8-24-5.8-37s1.9-25.3,5.8-37c3.9-11.7,9.7-22.1,17.5-31.1,7.8-9,17.6-16.1,29.3-21.5,11.8-5.3,25.4-8,41-8s29.2,2.7,40.9,8c11.7,5.3,21.4,12.5,29.2,21.5,7.8,9,13.6,19.4,17.5,31.1,3.9,11.7,5.9,24.1,5.9,37s-2.5,28.5-7.5,41.3c-2.2,5.7-4.9,11-8.2,16l-14.5-10.5c2.1-3.6,3.9-7.5,5.3-11.6,4-11.4,6-23.1,6-35.1s-1.4-20.4-4.3-30.2c-2.9-9.8-7.3-18.6-13.4-26.4-6-7.8-13.7-14-23.1-18.7-9.4-4.7-20.7-7.1-33.8-7.1s-24.4,2.4-33.9,7.1c-9.5,4.7-17.2,11-23.2,18.7-6,7.8-10.5,16.6-13.3,26.4-2.9,9.8-4.3,19.9-4.3,30.2s1.5,20.2,4.3,30c2.8,9.9,7.3,18.7,13.3,26.5,6,7.8,13.8,14,23.2,18.7,9.5,4.7,20.8,7.1,33.9,7.1s26.3-3.1,36.7-9.2l-26.1-18.6,9.7-11.3,28.9,20.7h0s14.1,10.2,14.1,10.2l1.7,1.2Z"/>
    <rect class="st2" x="6052.5" y="-2342.3" width="119.3" height="15.2"/>
    <rect class="st2" x="6075.2" y="-2431.5" width="87.7" height="15.2"/>
    <rect class="st2" x="6052.2" y="-2342.6" width=".3" height=".3"/>
    <polygon class="st2" points="6033.3 -2499.1 6033.3 -2342.6 6052.2 -2342.6 6052.2 -2407.3 6052.2 -2416.3 6052.2 -2431.5 6052.2 -2440.3 6052.2 -2499.1 6033.3 -2499.1"/>
  </g>
  <rect class="st4" x="5815.1" y="-3425.9" width="1244.5" height="595.3"/>
  <g>
    <rect class="st2" x="6052.5" y="-3225.8" width="117.9" height="15.2"/>
    <path class="st2" d="M6837.1-3194.9c2.8,6.7,4.2,14.2,4.2,22.5s-1.4,15.9-4.2,22.6c-2.8,6.6-6.7,12.3-12,16.9-5.2,4.6-11.4,8.1-18.6,10.5-7.2,2.3-15.3,3.5-24.2,3.5h-46.3v-15.2h42.1c13.2,0,23.8-3.2,32-9.5,8.1-6.3,12.2-15.9,12.2-28.8s-4.1-22.5-12.2-28.8c-8.2-6.3-18.8-9.5-32-9.5h-65.1v172.1h-18.9v-187.3h88.2c8.9,0,17,1.2,24.2,3.5,7.2,2.4,13.4,5.9,18.6,10.5,5.2,4.6,9.2,10.3,12,16.9"/>
    <rect class="st2" x="6624.4" y="-3225.9" width="18.9" height="187.3"/>
    <path class="st2" d="M6575.5-3225.9v119.8c0,9.6-1.4,18.7-4.3,27.4-2.9,8.7-7.4,16.2-13.6,22.7-6.2,6.5-14.2,11.6-23.9,15.4-9.7,3.7-21.6,5.6-35.4,5.6s-25.5-1.9-35.2-5.6c-9.7-3.8-17.7-8.9-23.9-15.4-6.2-6.5-10.7-14-13.6-22.7-2.9-8.7-4.3-17.8-4.3-27.4v-119.8h18.9v115.9c0,10.8,1.3,20.1,3.9,27.7,2.6,7.6,6.4,13.8,11.4,18.6,5,4.8,11.1,8.3,18.3,10.5,7.2,2.2,15.4,3.3,24.5,3.3s17.5-1.1,24.7-3.3c7.2-2.2,13.4-5.7,18.4-10.5,5-4.8,8.8-11,11.4-18.6,2.6-7.6,3.9-16.8,3.9-27.7v-115.9h18.9Z"/>
    <polygon class="st2" points="6363.1 -3051.6 6363.1 -3051.6 6355.9 -3056.8 6363.1 -3051.6"/>
    <path class="st2" d="M6355.9-3056.8l7.2,5.2h0c0,0,19.4,13.8,19.4,13.8l-9.5,11-30.9-21.8c-13.5,9.1-30.7,13.6-51.4,13.6s-29.2-2.7-41-8c-11.8-5.3-21.6-12.4-29.3-21.4-7.8-8.9-13.6-19.2-17.5-31-3.9-11.7-5.8-24-5.8-37s1.9-25.3,5.8-37c3.9-11.7,9.7-22.1,17.5-31.1,7.8-9,17.6-16.1,29.3-21.5,11.8-5.3,25.4-8,41-8s29.2,2.7,40.9,8c11.7,5.3,21.4,12.5,29.2,21.5,7.8,9,13.6,19.4,17.5,31.1,3.9,11.7,5.9,24.1,5.9,37s-2.5,28.5-7.5,41.3c-2.2,5.7-4.9,11-8.2,16l-14.5-10.5c2.1-3.6,3.9-7.5,5.3-11.6,4-11.4,6-23.1,6-35.1s-1.4-20.4-4.3-30.2c-2.9-9.8-7.3-18.6-13.4-26.4-6-7.8-13.7-14-23.1-18.7-9.4-4.7-20.7-7.1-33.8-7.1s-24.4,2.4-33.9,7.1c-9.5,4.7-17.2,11-23.2,18.7-6,7.8-10.5,16.6-13.3,26.4-2.9,9.8-4.3,19.9-4.3,30.2s1.5,20.2,4.3,30c2.8,9.9,7.3,18.7,13.3,26.5,6,7.8,13.8,14,23.2,18.7,9.5,4.7,20.8,7.1,33.9,7.1s26.3-3.1,36.7-9.2l-26.1-18.6,9.7-11.3,28.9,20.7h0s14.1,10.2,14.1,10.2l1.7,1.2Z"/>
    <rect class="st2" x="6052.5" y="-3053.8" width="119.3" height="15.2"/>
    <rect class="st2" x="6075.2" y="-3143" width="87.7" height="15.2"/>
    <rect class="st2" x="6052.2" y="-3054.1" width=".3" height=".3"/>
    <polygon class="st2" points="6033.3 -3210.7 6033.3 -3054.1 6052.2 -3054.1 6052.2 -3118.8 6052.2 -3127.8 6052.2 -3143 6052.2 -3151.8 6052.2 -3210.7 6033.3 -3210.7"/>
  </g>
  <rect class="st0" x="10276.2" y="-867.4" width="1244.5" height="1111"/>
  <rect class="st4" x="5815.1" y="-5059.1" width="1244.5" height="595.3"/>
  <g>
    <path class="st2" d="M6275.9-4930.1v337.4h-352.7v-337.4h352.7ZM6203.2-4654.4v-43.2h-148.5v-41.3h148.5v-43.2h-161.3v-42.1h161.3v-43.2h-161.4v42.9h-41.9v42.8h41.9v34.3h-48.5v60.1h48.5v32.9h161.4ZM6000.2-4834.1v-23.5h-22.3v23.5h22.3Z"/>
    <g>
      <rect class="st2" x="6406.3" y="-4828.8" width="81.5" height="10.5"/>
      <path class="st2" d="M6948.5-4807.5c1.9,4.6,2.9,9.8,2.9,15.6s-1,11-2.9,15.6c-1.9,4.6-4.7,8.5-8.3,11.7-3.6,3.2-7.9,5.6-12.9,7.3-5,1.6-10.6,2.4-16.7,2.4h-32v-10.5h29.1c9.1,0,16.5-2.2,22.1-6.5,5.6-4.3,8.5-11,8.5-19.9s-2.8-15.6-8.5-19.9c-5.6-4.4-13-6.5-22.1-6.5h-45v118.9h-13.1v-129.4h60.9c6.1,0,11.7.8,16.7,2.4,5,1.6,9.3,4.1,12.9,7.3,3.6,3.2,6.4,7.1,8.3,11.7"/>
      <rect class="st2" x="6801.5" y="-4828.8" width="13.1" height="129.4"/>
      <path class="st2" d="M6767.7-4828.8v82.8c0,6.7-1,13-3,18.9-2,6-5.1,11.2-9.4,15.7-4.3,4.5-9.8,8-16.5,10.6-6.7,2.6-14.9,3.9-24.5,3.9s-17.6-1.3-24.3-3.9c-6.7-2.6-12.2-6.1-16.5-10.6-4.3-4.5-7.4-9.7-9.4-15.7-2-6-3-12.3-3-18.9v-82.8h13.1v80.1c0,7.5.9,13.9,2.7,19.1,1.8,5.3,4.4,9.5,7.9,12.9,3.4,3.3,7.7,5.7,12.7,7.3,5,1.5,10.6,2.3,16.9,2.3s12.1-.8,17.1-2.3c5-1.5,9.2-3.9,12.7-7.3,3.4-3.3,6.1-7.6,7.9-12.9,1.8-5.3,2.7-11.6,2.7-19.1v-80.1h13.1Z"/>
      <polygon class="st2" points="6620.9 -4708.4 6620.9 -4708.4 6615.9 -4712 6620.9 -4708.4"/>
      <path class="st2" d="M6615.9-4712l5,3.6h0s13.4,9.5,13.4,9.5l-6.5,7.6-21.3-15c-9.4,6.3-21.2,9.4-35.5,9.4s-20.2-1.8-28.3-5.5c-8.1-3.7-14.9-8.6-20.3-14.8-5.4-6.2-9.4-13.3-12.1-21.4-2.7-8.1-4-16.6-4-25.6s1.3-17.5,4-25.6c2.7-8.1,6.7-15.3,12.1-21.5,5.4-6.2,12.1-11.2,20.3-14.9,8.1-3.7,17.6-5.5,28.3-5.5s20.2,1.8,28.3,5.5c8.1,3.7,14.8,8.6,20.2,14.9,5.4,6.2,9.4,13.4,12.1,21.5,2.7,8.1,4.1,16.6,4.1,25.6s-1.7,19.7-5.2,28.6c-1.5,3.9-3.4,7.6-5.6,11l-10-7.2c1.5-2.5,2.7-5.2,3.7-8,2.7-7.8,4.1-16,4.1-24.3s-1-14.1-3-20.8c-2-6.8-5.1-12.8-9.2-18.2-4.1-5.4-9.5-9.7-15.9-13-6.5-3.3-14.3-4.9-23.4-4.9s-16.9,1.6-23.4,4.9c-6.5,3.3-11.9,7.6-16.1,13-4.1,5.4-7.2,11.4-9.2,18.2-2,6.8-3,13.7-3,20.8s1,13.9,3,20.8c2,6.8,5.1,12.9,9.2,18.3,4.2,5.4,9.5,9.7,16.1,13,6.5,3.3,14.3,4.9,23.4,4.9s18.2-2.1,25.4-6.3l-18.1-12.9,6.7-7.8,20,14.3h0s9.8,7.1,9.8,7.1l1.2.8Z"/>
      <rect class="st2" x="6406.3" y="-4710" width="82.4" height="10.5"/>
      <rect class="st2" x="6421.9" y="-4771.6" width="60.6" height="10.5"/>
      <rect class="st2" x="6406.1" y="-4710.2" width=".2" height=".2"/>
      <polygon class="st2" points="6393 -4818.3 6393 -4710.2 6406.1 -4710.2 6406.1 -4754.9 6406.1 -4761.1 6406.1 -4771.6 6406.1 -4777.7 6406.1 -4818.3 6393 -4818.3"/>
    </g>
  </g>
  <g>
    <g>
      <rect class="st4" x="10533.4" y="-179.8" width="111.8" height="14.4"/>
      <path class="st4" d="M11277.8-150.5c2.6,6.3,4,13.4,4,21.4s-1.3,15.1-4,21.4c-2.6,6.3-6.4,11.6-11.4,16-4.9,4.4-10.8,7.7-17.7,10-6.9,2.2-14.5,3.3-22.9,3.3h-43.9v-14.4h39.9c12.5,0,22.6-3,30.3-9,7.7-5.9,11.6-15.1,11.6-27.4s-3.9-21.4-11.6-27.3c-7.8-6-17.9-9-30.3-9h-61.7V-2.1h-18v-177.7h83.6c8.4,0,16.1,1.1,22.9,3.3,6.9,2.2,12.7,5.6,17.7,10,5,4.4,8.7,9.8,11.4,16"/>
      <rect class="st4" x="11076" y="-179.8" width="18" height="177.7"/>
      <path class="st4" d="M11029.6-179.8v113.7c0,9.1-1.3,17.8-4.1,26-2.7,8.2-7,15.4-12.9,21.5-5.9,6.2-13.5,11-22.7,14.6-9.2,3.5-20.5,5.3-33.6,5.3s-24.2-1.8-33.4-5.3c-9.2-3.6-16.8-8.4-22.7-14.6-5.9-6.1-10.2-13.3-12.9-21.5-2.7-8.2-4.1-16.9-4.1-26v-113.7h18v110c0,10.3,1.2,19,3.7,26.2,2.4,7.2,6,13.1,10.8,17.7,4.7,4.6,10.6,7.9,17.4,10,6.8,2.1,14.6,3.1,23.2,3.1s16.6-1,23.5-3.1c6.9-2.1,12.7-5.4,17.4-10,4.7-4.6,8.3-10.4,10.8-17.7,2.4-7.2,3.7-16,3.7-26.2v-110h17.9Z"/>
      <polygon class="st4" points="10828.1 -14.5 10828.1 -14.5 10821.2 -19.4 10828.1 -14.5"/>
      <path class="st4" d="M10821.2-19.4l6.9,4.9h0c0,0,18.4,13,18.4,13l-9,10.4-29.3-20.6c-12.8,8.6-29.1,12.9-48.8,12.9s-27.7-2.5-38.9-7.6c-11.2-5.1-20.5-11.8-27.8-20.3-7.4-8.5-12.9-18.2-16.6-29.4-3.7-11.1-5.5-22.8-5.5-35.1s1.8-24,5.5-35.1c3.7-11.1,9.2-20.9,16.6-29.5,7.4-8.5,16.7-15.3,27.8-20.4,11.2-5.1,24.1-7.6,38.9-7.6s27.7,2.5,38.8,7.6c11.1,5.1,20.3,11.9,27.7,20.4,7.4,8.6,12.9,18.4,16.6,29.5,3.7,11.1,5.6,22.8,5.6,35.1s-2.4,27-7.1,39.2c-2.1,5.4-4.7,10.4-7.8,15.1l-13.8-10c2-3.5,3.7-7.2,5.1-11,3.8-10.8,5.7-21.9,5.7-33.4s-1.4-19.3-4.1-28.6c-2.7-9.3-7-17.6-12.7-25-5.7-7.4-13-13.3-21.9-17.8-8.9-4.5-19.6-6.7-32.1-6.7s-23.2,2.2-32.2,6.7c-9,4.5-16.3,10.4-22,17.8-5.7,7.4-9.9,15.7-12.6,25-2.7,9.3-4.1,18.8-4.1,28.6s1.4,19.1,4.1,28.5c2.7,9.4,6.9,17.8,12.6,25.1,5.7,7.4,13.1,13.3,22,17.8,9,4.5,19.7,6.7,32.2,6.7s25-2.9,34.8-8.7l-24.8-17.7,9.2-10.7,27.4,19.7h0s13.4,9.7,13.4,9.7l1.6,1.2Z"/>
      <rect class="st4" x="10533.4" y="-16.6" width="113.2" height="14.4"/>
      <rect class="st4" x="10554.9" y="-101.2" width="83.2" height="14.4"/>
      <rect class="st4" x="10533.1" y="-16.8" width=".3" height=".3"/>
      <polygon class="st4" points="10515.2 -165.4 10515.2 -16.9 10533.1 -16.9 10533.1 -78.3 10533.1 -86.8 10533.1 -101.2 10533.1 -109.5 10533.1 -165.4 10515.2 -165.4"/>
    </g>
    <g>
      <polygon class="st4" points="10832 -572.1 10832 -632.8 10604.9 -632.8 10604.9 -572.5 10546.1 -572.5 10546.1 -512.2 10604.9 -512.2 10604.9 -464 10536.7 -464 10536.7 -379.5 10604.9 -379.5 10604.9 -333.3 10832 -333.3 10832 -394.1 10623.2 -394.1 10623.2 -452.2 10832 -452.2 10832 -512.9 10605.2 -512.9 10605.2 -572.1 10832 -572.1"/>
      <rect class="st4" x="10515.2" y="-619.2" width="31.4" height="33"/>
    </g>
  </g>
  <rect class="st3" x="8961.6" y="-867.4" width="1244.5" height="1111"/>
  <g>
    <g>
      <rect class="st4" x="9218.8" y="-179.8" width="111.8" height="14.4"/>
      <path class="st4" d="M9963.2-150.5c2.6,6.3,4,13.4,4,21.4s-1.3,15.1-4,21.4c-2.6,6.3-6.4,11.6-11.4,16-4.9,4.4-10.8,7.7-17.7,10-6.9,2.2-14.5,3.3-22.9,3.3h-43.9v-14.4h39.9c12.5,0,22.6-3,30.3-9,7.7-5.9,11.6-15.1,11.6-27.4s-3.9-21.4-11.6-27.3c-7.8-6-17.9-9-30.3-9h-61.7V-2.1h-18v-177.7h83.6c8.4,0,16.1,1.1,22.9,3.3,6.9,2.2,12.7,5.6,17.7,10,5,4.4,8.7,9.8,11.4,16"/>
      <rect class="st4" x="9761.4" y="-179.8" width="18" height="177.7"/>
      <path class="st4" d="M9715-179.8v113.7c0,9.1-1.3,17.8-4.1,26-2.7,8.2-7,15.4-12.9,21.5-5.9,6.2-13.5,11-22.7,14.6-9.2,3.5-20.5,5.3-33.6,5.3s-24.2-1.8-33.4-5.3c-9.2-3.6-16.8-8.4-22.7-14.6-5.9-6.1-10.2-13.3-12.9-21.5-2.7-8.2-4.1-16.9-4.1-26v-113.7h18v110c0,10.3,1.2,19,3.7,26.2,2.4,7.2,6,13.1,10.8,17.7,4.7,4.6,10.6,7.9,17.4,10,6.8,2.1,14.6,3.1,23.2,3.1s16.6-1,23.5-3.1c6.9-2.1,12.7-5.4,17.4-10,4.7-4.6,8.3-10.4,10.8-17.7,2.4-7.2,3.7-16,3.7-26.2v-110h17.9Z"/>
      <polygon class="st4" points="9513.5 -14.5 9513.4 -14.5 9506.6 -19.4 9513.5 -14.5"/>
      <path class="st4" d="M9506.6-19.4l6.9,4.9h0c0,0,18.4,13,18.4,13l-9,10.4-29.3-20.6c-12.8,8.6-29.1,12.9-48.8,12.9s-27.7-2.5-38.9-7.6c-11.2-5.1-20.5-11.8-27.8-20.3-7.4-8.5-12.9-18.2-16.6-29.4-3.7-11.1-5.5-22.8-5.5-35.1s1.8-24,5.5-35.1c3.7-11.1,9.2-20.9,16.6-29.5,7.4-8.5,16.7-15.3,27.8-20.4,11.2-5.1,24.1-7.6,38.9-7.6s27.7,2.5,38.8,7.6c11.1,5.1,20.3,11.9,27.7,20.4,7.4,8.6,12.9,18.4,16.6,29.5,3.7,11.1,5.6,22.8,5.6,35.1s-2.4,27-7.1,39.2c-2.1,5.4-4.7,10.4-7.8,15.1l-13.8-10c2-3.5,3.7-7.2,5.1-11,3.8-10.8,5.7-21.9,5.7-33.4s-1.4-19.3-4.1-28.6c-2.7-9.3-7-17.6-12.7-25-5.7-7.4-13-13.3-21.9-17.8-8.9-4.5-19.6-6.7-32.1-6.7s-23.2,2.2-32.2,6.7c-9,4.5-16.3,10.4-22,17.8-5.7,7.4-9.9,15.7-12.6,25-2.7,9.3-4.1,18.8-4.1,28.6s1.4,19.1,4.1,28.5c2.7,9.4,6.9,17.8,12.6,25.1,5.7,7.4,13.1,13.3,22,17.8,9,4.5,19.7,6.7,32.2,6.7s25-2.9,34.8-8.7l-24.8-17.7,9.2-10.7,27.4,19.7h0s13.4,9.7,13.4,9.7l1.6,1.2Z"/>
      <rect class="st4" x="9218.8" y="-16.6" width="113.2" height="14.4"/>
      <rect class="st4" x="9240.3" y="-101.2" width="83.2" height="14.4"/>
      <rect class="st4" x="9218.5" y="-16.8" width=".3" height=".3"/>
      <polygon class="st4" points="9200.5 -165.4 9200.5 -16.9 9218.5 -16.9 9218.5 -78.3 9218.5 -86.8 9218.5 -101.2 9218.5 -109.5 9218.5 -165.4 9200.5 -165.4"/>
    </g>
    <g>
      <polygon class="st4" points="9517.4 -572.1 9517.4 -632.8 9290.3 -632.8 9290.3 -572.5 9231.4 -572.5 9231.4 -512.2 9290.3 -512.2 9290.3 -464 9222.1 -464 9222.1 -379.5 9290.3 -379.5 9290.3 -333.3 9517.4 -333.3 9517.4 -394.1 9308.6 -394.1 9308.6 -452.2 9517.4 -452.2 9517.4 -512.9 9290.5 -512.9 9290.5 -572.1 9517.4 -572.1"/>
      <rect class="st4" x="9200.5" y="-619.2" width="31.4" height="33"/>
    </g>
  </g>
  <rect class="st2" x="7619.9" y="-867.4" width="1244.5" height="1111"/>
  <g>
    <g>
      <rect class="st4" x="7877" y="-179.8" width="111.8" height="14.4"/>
      <path class="st4" d="M8621.5-150.5c2.6,6.3,4,13.4,4,21.4s-1.3,15.1-4,21.4c-2.6,6.3-6.4,11.6-11.4,16-4.9,4.4-10.8,7.7-17.7,10-6.9,2.2-14.5,3.3-22.9,3.3h-43.9v-14.4h39.9c12.5,0,22.6-3,30.3-9,7.7-5.9,11.6-15.1,11.6-27.4s-3.9-21.4-11.6-27.3c-7.8-6-17.9-9-30.3-9h-61.7V-2.1h-18v-177.7h83.6c8.4,0,16.1,1.1,22.9,3.3,6.9,2.2,12.7,5.6,17.7,10,5,4.4,8.7,9.8,11.4,16"/>
      <rect class="st4" x="8419.6" y="-179.8" width="18" height="177.7"/>
      <path class="st4" d="M8373.2-179.8v113.7c0,9.1-1.3,17.8-4.1,26-2.7,8.2-7,15.4-12.9,21.5-5.9,6.2-13.5,11-22.7,14.6-9.2,3.5-20.5,5.3-33.6,5.3s-24.2-1.8-33.4-5.3c-9.2-3.6-16.8-8.4-22.7-14.6-5.9-6.1-10.2-13.3-12.9-21.5-2.7-8.2-4.1-16.9-4.1-26v-113.7h18v110c0,10.3,1.2,19,3.7,26.2,2.4,7.2,6,13.1,10.8,17.7,4.7,4.6,10.6,7.9,17.4,10,6.8,2.1,14.6,3.1,23.2,3.1s16.6-1,23.5-3.1c6.9-2.1,12.7-5.4,17.4-10,4.7-4.6,8.3-10.4,10.8-17.7,2.4-7.2,3.7-16,3.7-26.2v-110h17.9Z"/>
      <polygon class="st4" points="8171.7 -14.5 8171.7 -14.5 8164.8 -19.4 8171.7 -14.5"/>
      <path class="st4" d="M8164.8-19.4l6.9,4.9h0c0,0,18.4,13,18.4,13l-9,10.4-29.3-20.6c-12.8,8.6-29.1,12.9-48.8,12.9s-27.7-2.5-38.9-7.6c-11.2-5.1-20.5-11.8-27.8-20.3-7.4-8.5-12.9-18.2-16.6-29.4-3.7-11.1-5.5-22.8-5.5-35.1s1.8-24,5.5-35.1c3.7-11.1,9.2-20.9,16.6-29.5,7.4-8.5,16.7-15.3,27.8-20.4,11.2-5.1,24.1-7.6,38.9-7.6s27.7,2.5,38.8,7.6c11.1,5.1,20.3,11.9,27.7,20.4,7.4,8.6,12.9,18.4,16.6,29.5,3.7,11.1,5.6,22.8,5.6,35.1s-2.4,27-7.1,39.2c-2.1,5.4-4.7,10.4-7.8,15.1l-13.8-10c2-3.5,3.7-7.2,5.1-11,3.8-10.8,5.7-21.9,5.7-33.4s-1.4-19.3-4.1-28.6c-2.7-9.3-7-17.6-12.7-25-5.7-7.4-13-13.3-21.9-17.8-8.9-4.5-19.6-6.7-32.1-6.7s-23.2,2.2-32.2,6.7c-9,4.5-16.3,10.4-22,17.8-5.7,7.4-9.9,15.7-12.6,25-2.7,9.3-4.1,18.8-4.1,28.6s1.4,19.1,4.1,28.5c2.7,9.4,6.9,17.8,12.6,25.1,5.7,7.4,13.1,13.3,22,17.8,9,4.5,19.7,6.7,32.2,6.7s25-2.9,34.8-8.7l-24.8-17.7,9.2-10.7,27.4,19.7h0s13.4,9.7,13.4,9.7l1.6,1.2Z"/>
      <rect class="st4" x="7877" y="-16.6" width="113.2" height="14.4"/>
      <rect class="st4" x="7898.5" y="-101.2" width="83.2" height="14.4"/>
      <rect class="st4" x="7876.7" y="-16.8" width=".3" height=".3"/>
      <polygon class="st4" points="7858.8 -165.4 7858.8 -16.9 7876.7 -16.9 7876.7 -78.3 7876.7 -86.8 7876.7 -101.2 7876.7 -109.5 7876.7 -165.4 7858.8 -165.4"/>
    </g>
    <g>
      <polygon class="st4" points="8175.6 -572.1 8175.6 -632.8 7948.6 -632.8 7948.6 -572.5 7889.7 -572.5 7889.7 -512.2 7948.6 -512.2 7948.6 -464 7880.3 -464 7880.3 -379.5 7948.6 -379.5 7948.6 -333.3 8175.6 -333.3 8175.6 -394.1 7966.8 -394.1 7966.8 -452.2 8175.6 -452.2 8175.6 -512.9 7948.8 -512.9 7948.8 -572.1 8175.6 -572.1"/>
      <rect class="st4" x="7858.8" y="-619.2" width="31.4" height="33"/>
    </g>
  </g>
  <g>
    <g>
      <rect class="st1" x="11777.9" y="1121.3" width="111.8" height="14.4"/>
      <path class="st1" d="M12522.3,1150.6c2.6,6.3,4,13.4,4,21.4s-1.3,15.1-4,21.4c-2.6,6.3-6.4,11.6-11.4,16-4.9,4.4-10.8,7.7-17.7,10-6.9,2.2-14.5,3.3-22.9,3.3h-43.9v-14.4h39.9c12.5,0,22.6-3,30.3-9,7.7-5.9,11.6-15.1,11.6-27.4s-3.9-21.4-11.6-27.3c-7.8-6-17.9-9-30.3-9h-61.7v163.3h-18v-177.7h83.6c8.4,0,16.1,1.1,22.9,3.3,6.9,2.2,12.7,5.6,17.7,10,5,4.4,8.7,9.8,11.4,16"/>
      <rect class="st1" x="12320.5" y="1121.3" width="18" height="177.7"/>
      <path class="st1" d="M12274.1,1121.3v113.7c0,9.1-1.3,17.8-4.1,26-2.7,8.2-7,15.4-12.9,21.5-5.9,6.2-13.5,11-22.7,14.6-9.2,3.5-20.5,5.3-33.6,5.3s-24.2-1.8-33.4-5.3c-9.2-3.6-16.8-8.4-22.7-14.6-5.9-6.1-10.2-13.3-12.9-21.5-2.7-8.2-4.1-16.9-4.1-26v-113.7h18v110c0,10.3,1.2,19,3.7,26.2,2.4,7.2,6,13.1,10.8,17.7,4.7,4.6,10.6,7.9,17.4,10,6.8,2.1,14.6,3.1,23.2,3.1s16.6-1,23.5-3.1c6.9-2.1,12.7-5.4,17.4-10,4.7-4.6,8.3-10.4,10.8-17.7,2.4-7.2,3.7-16,3.7-26.2v-110h17.9Z"/>
      <polygon class="st1" points="12072.6 1286.6 12072.6 1286.6 12065.7 1281.7 12072.6 1286.6"/>
      <path class="st1" d="M12065.7,1281.7l6.9,4.9h0c0,0,18.4,13,18.4,13l-9,10.4-29.3-20.6c-12.8,8.6-29.1,12.9-48.8,12.9s-27.7-2.5-38.9-7.6c-11.2-5.1-20.5-11.8-27.8-20.3-7.4-8.5-12.9-18.2-16.6-29.4-3.7-11.1-5.5-22.8-5.5-35.1s1.8-24,5.5-35.1c3.7-11.1,9.2-20.9,16.6-29.5,7.4-8.5,16.7-15.3,27.8-20.4,11.2-5.1,24.1-7.6,38.9-7.6s27.7,2.5,38.8,7.6c11.1,5.1,20.3,11.9,27.7,20.4,7.4,8.6,12.9,18.4,16.6,29.5,3.7,11.1,5.6,22.8,5.6,35.1s-2.4,27-7.1,39.2c-2.1,5.4-4.7,10.4-7.8,15.1l-13.8-10c2-3.5,3.7-7.2,5.1-11,3.8-10.8,5.7-21.9,5.7-33.4s-1.4-19.3-4.1-28.6c-2.7-9.3-7-17.6-12.7-25-5.7-7.4-13-13.3-21.9-17.8-8.9-4.5-19.6-6.7-32.1-6.7s-23.2,2.2-32.2,6.7c-9,4.5-16.3,10.4-22,17.8-5.7,7.4-9.9,15.7-12.6,25-2.7,9.3-4.1,18.8-4.1,28.6s1.4,19.1,4.1,28.5c2.7,9.4,6.9,17.8,12.6,25.1,5.7,7.4,13.1,13.3,22,17.8,9,4.5,19.7,6.7,32.2,6.7s25-2.9,34.8-8.7l-24.8-17.7,9.2-10.7,27.4,19.7h0s13.4,9.7,13.4,9.7l1.6,1.2Z"/>
      <rect class="st1" x="11777.9" y="1284.5" width="113.2" height="14.4"/>
      <rect class="st1" x="11799.4" y="1199.9" width="83.2" height="14.4"/>
      <rect class="st1" x="11777.6" y="1284.2" width=".3" height=".3"/>
      <polygon class="st1" points="11759.7 1135.7 11759.7 1284.2 11777.6 1284.2 11777.6 1222.8 11777.6 1214.3 11777.6 1199.9 11777.6 1191.6 11777.6 1135.7 11759.7 1135.7"/>
    </g>
    <g>
      <polygon class="st1" points="12076.5 729 12076.5 668.2 11849.4 668.2 11849.4 728.6 11790.6 728.6 11790.6 788.8 11849.4 788.8 11849.4 837 11781.2 837 11781.2 921.6 11849.4 921.6 11849.4 967.8 12076.5 967.8 12076.5 907 11867.7 907 11867.7 848.9 12076.5 848.9 12076.5 788.1 11849.7 788.1 11849.7 729 12076.5 729"/>
      <rect class="st1" x="11759.7" y="681.9" width="31.4" height="33"/>
    </g>
  </g>
  <g>
    <g>
      <rect x="10463.3" y="1121.3" width="111.8" height="14.4"/>
      <path d="M11207.7,1150.6c2.6,6.3,4,13.4,4,21.4s-1.3,15.1-4,21.4c-2.6,6.3-6.4,11.6-11.4,16-4.9,4.4-10.8,7.7-17.7,10-6.9,2.2-14.5,3.3-22.9,3.3h-43.9v-14.4h39.9c12.5,0,22.6-3,30.3-9,7.7-5.9,11.6-15.1,11.6-27.4s-3.9-21.4-11.6-27.3c-7.8-6-17.9-9-30.3-9h-61.7v163.3h-18v-177.7h83.6c8.4,0,16.1,1.1,22.9,3.3,6.9,2.2,12.7,5.6,17.7,10,5,4.4,8.7,9.8,11.4,16"/>
      <rect x="11005.9" y="1121.3" width="18" height="177.7"/>
      <path d="M10959.5,1121.3v113.7c0,9.1-1.3,17.8-4.1,26-2.7,8.2-7,15.4-12.9,21.5-5.9,6.2-13.5,11-22.7,14.6-9.2,3.5-20.5,5.3-33.6,5.3s-24.2-1.8-33.4-5.3c-9.2-3.6-16.8-8.4-22.7-14.6-5.9-6.1-10.2-13.3-12.9-21.5-2.7-8.2-4.1-16.9-4.1-26v-113.7h18v110c0,10.3,1.2,19,3.7,26.2,2.4,7.2,6,13.1,10.8,17.7,4.7,4.6,10.6,7.9,17.4,10,6.8,2.1,14.6,3.1,23.2,3.1s16.6-1,23.5-3.1c6.9-2.1,12.7-5.4,17.4-10,4.7-4.6,8.3-10.4,10.8-17.7,2.4-7.2,3.7-16,3.7-26.2v-110h17.9Z"/>
      <polygon points="10758 1286.6 10757.9 1286.6 10751.1 1281.7 10758 1286.6"/>
      <path d="M10751.1,1281.7l6.9,4.9h0c0,0,18.4,13,18.4,13l-9,10.4-29.3-20.6c-12.8,8.6-29.1,12.9-48.8,12.9s-27.7-2.5-38.9-7.6c-11.2-5.1-20.5-11.8-27.8-20.3-7.4-8.5-12.9-18.2-16.6-29.4-3.7-11.1-5.5-22.8-5.5-35.1s1.8-24,5.5-35.1c3.7-11.1,9.2-20.9,16.6-29.5,7.4-8.5,16.7-15.3,27.8-20.4,11.2-5.1,24.1-7.6,38.9-7.6s27.7,2.5,38.8,7.6c11.1,5.1,20.3,11.9,27.7,20.4,7.4,8.6,12.9,18.4,16.6,29.5,3.7,11.1,5.6,22.8,5.6,35.1s-2.4,27-7.1,39.2c-2.1,5.4-4.7,10.4-7.8,15.1l-13.8-10c2-3.5,3.7-7.2,5.1-11,3.8-10.8,5.7-21.9,5.7-33.4s-1.4-19.3-4.1-28.6c-2.7-9.3-7-17.6-12.7-25-5.7-7.4-13-13.3-21.9-17.8-8.9-4.5-19.6-6.7-32.1-6.7s-23.2,2.2-32.2,6.7c-9,4.5-16.3,10.4-22,17.8-5.7,7.4-9.9,15.7-12.6,25-2.7,9.3-4.1,18.8-4.1,28.6s1.4,19.1,4.1,28.5c2.7,9.4,6.9,17.8,12.6,25.1,5.7,7.4,13.1,13.3,22,17.8,9,4.5,19.7,6.7,32.2,6.7s25-2.9,34.8-8.7l-24.8-17.7,9.2-10.7,27.4,19.7h0s13.4,9.7,13.4,9.7l1.6,1.2Z"/>
      <rect x="10463.3" y="1284.5" width="113.2" height="14.4"/>
      <rect x="10484.8" y="1199.9" width="83.2" height="14.4"/>
      <rect x="10463" y="1284.2" width=".3" height=".3"/>
      <polygon points="10445 1135.7 10445 1284.2 10463 1284.2 10463 1222.8 10463 1214.3 10463 1199.9 10463 1191.6 10463 1135.7 10445 1135.7"/>
    </g>
    <g>
      <polygon points="10761.9 729 10761.9 668.2 10534.8 668.2 10534.8 728.6 10475.9 728.6 10475.9 788.8 10534.8 788.8 10534.8 837 10466.6 837 10466.6 921.6 10534.8 921.6 10534.8 967.8 10761.9 967.8 10761.9 907 10553.1 907 10553.1 848.9 10761.9 848.9 10761.9 788.1 10535 788.1 10535 729 10761.9 729"/>
      <rect x="10445" y="681.9" width="31.4" height="33"/>
    </g>
  </g>
  <g>
    <g>
      <rect class="st3" x="9178.1" y="1121.3" width="111.8" height="14.4"/>
      <path class="st3" d="M9922.5,1150.6c2.6,6.3,4,13.4,4,21.4s-1.3,15.1-4,21.4c-2.6,6.3-6.4,11.6-11.4,16-4.9,4.4-10.8,7.7-17.7,10-6.9,2.2-14.5,3.3-22.9,3.3h-43.9v-14.4h39.9c12.5,0,22.6-3,30.3-9,7.7-5.9,11.6-15.1,11.6-27.4s-3.9-21.4-11.6-27.3c-7.8-6-17.9-9-30.3-9h-61.7v163.3h-18v-177.7h83.6c8.4,0,16.1,1.1,22.9,3.3,6.9,2.2,12.7,5.6,17.7,10,5,4.4,8.7,9.8,11.4,16"/>
      <rect class="st3" x="9720.7" y="1121.3" width="18" height="177.7"/>
      <path class="st3" d="M9674.3,1121.3v113.7c0,9.1-1.3,17.8-4.1,26-2.7,8.2-7,15.4-12.9,21.5-5.9,6.2-13.5,11-22.7,14.6-9.2,3.5-20.5,5.3-33.6,5.3s-24.2-1.8-33.4-5.3c-9.2-3.6-16.8-8.4-22.7-14.6-5.9-6.1-10.2-13.3-12.9-21.5-2.7-8.2-4.1-16.9-4.1-26v-113.7h18v110c0,10.3,1.2,19,3.7,26.2,2.4,7.2,6,13.1,10.8,17.7,4.7,4.6,10.6,7.9,17.4,10,6.8,2.1,14.6,3.1,23.2,3.1s16.6-1,23.5-3.1c6.9-2.1,12.7-5.4,17.4-10,4.7-4.6,8.3-10.4,10.8-17.7,2.4-7.2,3.7-16,3.7-26.2v-110h17.9Z"/>
      <polygon class="st3" points="9472.8 1286.6 9472.8 1286.6 9465.9 1281.7 9472.8 1286.6"/>
      <path class="st3" d="M9465.9,1281.7l6.9,4.9h0c0,0,18.4,13,18.4,13l-9,10.4-29.3-20.6c-12.8,8.6-29.1,12.9-48.8,12.9s-27.7-2.5-38.9-7.6c-11.2-5.1-20.5-11.8-27.8-20.3-7.4-8.5-12.9-18.2-16.6-29.4-3.7-11.1-5.5-22.8-5.5-35.1s1.8-24,5.5-35.1c3.7-11.1,9.2-20.9,16.6-29.5,7.4-8.5,16.7-15.3,27.8-20.4,11.2-5.1,24.1-7.6,38.9-7.6s27.7,2.5,38.8,7.6c11.1,5.1,20.3,11.9,27.7,20.4,7.4,8.6,12.9,18.4,16.6,29.5,3.7,11.1,5.6,22.8,5.6,35.1s-2.4,27-7.1,39.2c-2.1,5.4-4.7,10.4-7.8,15.1l-13.8-10c2-3.5,3.7-7.2,5.1-11,3.8-10.8,5.7-21.9,5.7-33.4s-1.4-19.3-4.1-28.6c-2.7-9.3-7-17.6-12.7-25-5.7-7.4-13-13.3-21.9-17.8-8.9-4.5-19.6-6.7-32.1-6.7s-23.2,2.2-32.2,6.7c-9,4.5-16.3,10.4-22,17.8-5.7,7.4-9.9,15.7-12.6,25-2.7,9.3-4.1,18.8-4.1,28.6s1.4,19.1,4.1,28.5c2.7,9.4,6.9,17.8,12.6,25.1,5.7,7.4,13.1,13.3,22,17.8,9,4.5,19.7,6.7,32.2,6.7s25-2.9,34.8-8.7l-24.8-17.7,9.2-10.7,27.4,19.7h0s13.4,9.7,13.4,9.7l1.6,1.2Z"/>
      <rect class="st3" x="9178.1" y="1284.5" width="113.2" height="14.4"/>
      <rect class="st3" x="9199.6" y="1199.9" width="83.2" height="14.4"/>
      <rect class="st3" x="9177.8" y="1284.2" width=".3" height=".3"/>
      <polygon class="st3" points="9159.9 1135.7 9159.9 1284.2 9177.8 1284.2 9177.8 1222.8 9177.8 1214.3 9177.8 1199.9 9177.8 1191.6 9177.8 1135.7 9159.9 1135.7"/>
    </g>
    <g>
      <polygon class="st3" points="9476.7 729 9476.7 668.2 9249.7 668.2 9249.7 728.6 9190.8 728.6 9190.8 788.8 9249.7 788.8 9249.7 837 9181.4 837 9181.4 921.6 9249.7 921.6 9249.7 967.8 9476.7 967.8 9476.7 907 9267.9 907 9267.9 848.9 9476.7 848.9 9476.7 788.1 9249.9 788.1 9249.9 729 9476.7 729"/>
      <rect class="st3" x="9159.9" y="681.9" width="31.4" height="33"/>
    </g>
  </g>
  <g>
    <g>
      <rect class="st4" x="7877" y="1121.3" width="111.8" height="14.4"/>
      <path class="st4" d="M8621.5,1150.6c2.6,6.3,4,13.4,4,21.4s-1.3,15.1-4,21.4c-2.6,6.3-6.4,11.6-11.4,16-4.9,4.4-10.8,7.7-17.7,10-6.9,2.2-14.5,3.3-22.9,3.3h-43.9v-14.4h39.9c12.5,0,22.6-3,30.3-9,7.7-5.9,11.6-15.1,11.6-27.4s-3.9-21.4-11.6-27.3c-7.8-6-17.9-9-30.3-9h-61.7v163.3h-18v-177.7h83.6c8.4,0,16.1,1.1,22.9,3.3,6.9,2.2,12.7,5.6,17.7,10,5,4.4,8.7,9.8,11.4,16"/>
      <rect class="st4" x="8419.6" y="1121.3" width="18" height="177.7"/>
      <path class="st4" d="M8373.2,1121.3v113.7c0,9.1-1.3,17.8-4.1,26-2.7,8.2-7,15.4-12.9,21.5-5.9,6.2-13.5,11-22.7,14.6-9.2,3.5-20.5,5.3-33.6,5.3s-24.2-1.8-33.4-5.3c-9.2-3.6-16.8-8.4-22.7-14.6-5.9-6.1-10.2-13.3-12.9-21.5-2.7-8.2-4.1-16.9-4.1-26v-113.7h18v110c0,10.3,1.2,19,3.7,26.2,2.4,7.2,6,13.1,10.8,17.7,4.7,4.6,10.6,7.9,17.4,10,6.8,2.1,14.6,3.1,23.2,3.1s16.6-1,23.5-3.1c6.9-2.1,12.7-5.4,17.4-10,4.7-4.6,8.3-10.4,10.8-17.7,2.4-7.2,3.7-16,3.7-26.2v-110h17.9Z"/>
      <polygon class="st4" points="8171.7 1286.6 8171.7 1286.6 8164.8 1281.7 8171.7 1286.6"/>
      <path class="st4" d="M8164.8,1281.7l6.9,4.9h0c0,0,18.4,13,18.4,13l-9,10.4-29.3-20.6c-12.8,8.6-29.1,12.9-48.8,12.9s-27.7-2.5-38.9-7.6c-11.2-5.1-20.5-11.8-27.8-20.3-7.4-8.5-12.9-18.2-16.6-29.4-3.7-11.1-5.5-22.8-5.5-35.1s1.8-24,5.5-35.1c3.7-11.1,9.2-20.9,16.6-29.5,7.4-8.5,16.7-15.3,27.8-20.4,11.2-5.1,24.1-7.6,38.9-7.6s27.7,2.5,38.8,7.6c11.1,5.1,20.3,11.9,27.7,20.4,7.4,8.6,12.9,18.4,16.6,29.5,3.7,11.1,5.6,22.8,5.6,35.1s-2.4,27-7.1,39.2c-2.1,5.4-4.7,10.4-7.8,15.1l-13.8-10c2-3.5,3.7-7.2,5.1-11,3.8-10.8,5.7-21.9,5.7-33.4s-1.4-19.3-4.1-28.6c-2.7-9.3-7-17.6-12.7-25-5.7-7.4-13-13.3-21.9-17.8-8.9-4.5-19.6-6.7-32.1-6.7s-23.2,2.2-32.2,6.7c-9,4.5-16.3,10.4-22,17.8-5.7,7.4-9.9,15.7-12.6,25-2.7,9.3-4.1,18.8-4.1,28.6s1.4,19.1,4.1,28.5c2.7,9.4,6.9,17.8,12.6,25.1,5.7,7.4,13.1,13.3,22,17.8,9,4.5,19.7,6.7,32.2,6.7s25-2.9,34.8-8.7l-24.8-17.7,9.2-10.7,27.4,19.7h0s13.4,9.7,13.4,9.7l1.6,1.2Z"/>
      <rect class="st4" x="7877" y="1284.5" width="113.2" height="14.4"/>
      <rect class="st4" x="7898.5" y="1199.9" width="83.2" height="14.4"/>
      <rect class="st4" x="7876.7" y="1284.2" width=".3" height=".3"/>
      <polygon class="st4" points="7858.8 1135.7 7858.8 1284.2 7876.7 1284.2 7876.7 1222.8 7876.7 1214.3 7876.7 1199.9 7876.7 1191.6 7876.7 1135.7 7858.8 1135.7"/>
    </g>
    <g>
      <polygon class="st4" points="8175.6 729 8175.6 668.2 7948.6 668.2 7948.6 728.6 7889.7 728.6 7889.7 788.8 7948.6 788.8 7948.6 837 7880.3 837 7880.3 921.6 7948.6 921.6 7948.6 967.8 8175.6 967.8 8175.6 907 7966.8 907 7966.8 848.9 8175.6 848.9 8175.6 788.1 7948.8 788.1 7948.8 729 8175.6 729"/>
      <rect class="st4" x="7858.8" y="681.9" width="31.4" height="33"/>
    </g>
  </g>
  <g>
    <g>
      <rect class="st2" x="6569.2" y="1121.3" width="111.8" height="14.4"/>
      <path class="st2" d="M7313.6,1150.6c2.6,6.3,4,13.4,4,21.4s-1.3,15.1-4,21.4c-2.6,6.3-6.4,11.6-11.4,16-4.9,4.4-10.8,7.7-17.7,10-6.9,2.2-14.5,3.3-22.9,3.3h-43.9v-14.4h39.9c12.5,0,22.6-3,30.3-9,7.7-5.9,11.6-15.1,11.6-27.4s-3.9-21.4-11.6-27.3c-7.8-6-17.9-9-30.3-9h-61.7v163.3h-18v-177.7h83.6c8.4,0,16.1,1.1,22.9,3.3,6.9,2.2,12.7,5.6,17.7,10,5,4.4,8.7,9.8,11.4,16"/>
      <rect class="st2" x="7111.8" y="1121.3" width="18" height="177.7"/>
      <path class="st2" d="M7065.4,1121.3v113.7c0,9.1-1.3,17.8-4.1,26-2.7,8.2-7,15.4-12.9,21.5-5.9,6.2-13.5,11-22.7,14.6-9.2,3.5-20.5,5.3-33.6,5.3s-24.2-1.8-33.4-5.3c-9.2-3.6-16.8-8.4-22.7-14.6-5.9-6.1-10.2-13.3-12.9-21.5-2.7-8.2-4.1-16.9-4.1-26v-113.7h18v110c0,10.3,1.2,19,3.7,26.2,2.4,7.2,6,13.1,10.8,17.7,4.7,4.6,10.6,7.9,17.4,10,6.8,2.1,14.6,3.1,23.2,3.1s16.6-1,23.5-3.1c6.9-2.1,12.7-5.4,17.4-10,4.7-4.6,8.3-10.4,10.8-17.7,2.4-7.2,3.7-16,3.7-26.2v-110h17.9Z"/>
      <polygon class="st2" points="6863.9 1286.6 6863.8 1286.6 6857 1281.7 6863.9 1286.6"/>
      <path class="st2" d="M6857,1281.7l6.9,4.9h0c0,0,18.4,13,18.4,13l-9,10.4-29.3-20.6c-12.8,8.6-29.1,12.9-48.8,12.9s-27.7-2.5-38.9-7.6c-11.2-5.1-20.5-11.8-27.8-20.3-7.4-8.5-12.9-18.2-16.6-29.4-3.7-11.1-5.5-22.8-5.5-35.1s1.8-24,5.5-35.1c3.7-11.1,9.2-20.9,16.6-29.5,7.4-8.5,16.7-15.3,27.8-20.4,11.2-5.1,24.1-7.6,38.9-7.6s27.7,2.5,38.8,7.6c11.1,5.1,20.3,11.9,27.7,20.4,7.4,8.6,12.9,18.4,16.6,29.5,3.7,11.1,5.6,22.8,5.6,35.1s-2.4,27-7.1,39.2c-2.1,5.4-4.7,10.4-7.8,15.1l-13.8-10c2-3.5,3.7-7.2,5.1-11,3.8-10.8,5.7-21.9,5.7-33.4s-1.4-19.3-4.1-28.6c-2.7-9.3-7-17.6-12.7-25-5.7-7.4-13-13.3-21.9-17.8-8.9-4.5-19.6-6.7-32.1-6.7s-23.2,2.2-32.2,6.7c-9,4.5-16.3,10.4-22,17.8-5.7,7.4-9.9,15.7-12.6,25-2.7,9.3-4.1,18.8-4.1,28.6s1.4,19.1,4.1,28.5c2.7,9.4,6.9,17.8,12.6,25.1,5.7,7.4,13.1,13.3,22,17.8,9,4.5,19.7,6.7,32.2,6.7s25-2.9,34.8-8.7l-24.8-17.7,9.2-10.7,27.4,19.7h0s13.4,9.7,13.4,9.7l1.6,1.2Z"/>
      <rect class="st2" x="6569.2" y="1284.5" width="113.2" height="14.4"/>
      <rect class="st2" x="6590.7" y="1199.9" width="83.2" height="14.4"/>
      <rect class="st2" x="6568.9" y="1284.2" width=".3" height=".3"/>
      <polygon class="st2" points="6550.9 1135.7 6550.9 1284.2 6568.9 1284.2 6568.9 1222.8 6568.9 1214.3 6568.9 1199.9 6568.9 1191.6 6568.9 1135.7 6550.9 1135.7"/>
    </g>
    <g>
      <polygon class="st2" points="6867.8 729 6867.8 668.2 6640.7 668.2 6640.7 728.6 6581.8 728.6 6581.8 788.8 6640.7 788.8 6640.7 837 6572.5 837 6572.5 921.6 6640.7 921.6 6640.7 967.8 6867.8 967.8 6867.8 907 6659 907 6659 848.9 6867.8 848.9 6867.8 788.1 6640.9 788.1 6640.9 729 6867.8 729"/>
      <rect class="st2" x="6550.9" y="681.9" width="31.4" height="33"/>
    </g>
  </g>
  <rect class="st0" x="4023" y="-1287.5" width="1244.5" height="1111"/>
  <g>
    <g>
      <rect class="st4" x="4280.1" y="-599.9" width="111.8" height="14.4"/>
      <path class="st4" d="M5024.6-570.6c2.6,6.3,4,13.4,4,21.4s-1.3,15.1-4,21.4c-2.6,6.3-6.4,11.6-11.4,16-4.9,4.4-10.8,7.7-17.7,10-6.9,2.2-14.5,3.3-22.9,3.3h-43.9v-14.4h39.9c12.5,0,22.6-3,30.3-9,7.7-5.9,11.6-15.1,11.6-27.4s-3.9-21.4-11.6-27.3c-7.8-6-17.9-9-30.3-9h-61.7v163.3h-18v-177.7h83.6c8.4,0,16.1,1.1,22.9,3.3,6.9,2.2,12.7,5.6,17.7,10,5,4.4,8.7,9.8,11.4,16"/>
      <rect class="st4" x="4822.7" y="-599.9" width="18" height="177.7"/>
      <path class="st4" d="M4776.3-599.9v113.7c0,9.1-1.3,17.8-4.1,26-2.7,8.2-7,15.4-12.9,21.5-5.9,6.2-13.5,11-22.7,14.6-9.2,3.5-20.5,5.3-33.6,5.3s-24.2-1.8-33.4-5.3c-9.2-3.6-16.8-8.4-22.7-14.6-5.9-6.1-10.2-13.3-12.9-21.5-2.7-8.2-4.1-16.9-4.1-26v-113.7h18v110c0,10.3,1.2,19,3.7,26.2,2.4,7.2,6,13.1,10.8,17.7,4.7,4.6,10.6,7.9,17.4,10,6.8,2.1,14.6,3.1,23.2,3.1s16.6-1,23.5-3.1c6.9-2.1,12.7-5.4,17.4-10,4.7-4.6,8.3-10.4,10.8-17.7,2.4-7.2,3.7-16,3.7-26.2v-110h17.9Z"/>
      <polygon class="st4" points="4574.8 -434.7 4574.8 -434.6 4567.9 -439.5 4574.8 -434.7"/>
      <path class="st4" d="M4567.9-439.5l6.9,4.9h0c0,0,18.4,13,18.4,13l-9,10.4-29.3-20.6c-12.8,8.6-29.1,12.9-48.8,12.9s-27.7-2.5-38.9-7.6c-11.2-5.1-20.5-11.8-27.8-20.3-7.4-8.5-12.9-18.2-16.6-29.4-3.7-11.1-5.5-22.8-5.5-35.1s1.8-24,5.5-35.1c3.7-11.1,9.2-20.9,16.6-29.5,7.4-8.5,16.7-15.3,27.8-20.4,11.2-5.1,24.1-7.6,38.9-7.6s27.7,2.5,38.8,7.6c11.1,5.1,20.3,11.9,27.7,20.4,7.4,8.6,12.9,18.4,16.6,29.5,3.7,11.1,5.6,22.8,5.6,35.1s-2.4,27-7.1,39.2c-2.1,5.4-4.7,10.4-7.8,15.1l-13.8-10c2-3.5,3.7-7.2,5.1-11,3.8-10.8,5.7-21.9,5.7-33.4s-1.4-19.3-4.1-28.6c-2.7-9.3-7-17.6-12.7-25-5.7-7.4-13-13.3-21.9-17.8-8.9-4.5-19.6-6.7-32.1-6.7s-23.2,2.2-32.2,6.7c-9,4.5-16.3,10.4-22,17.8-5.7,7.4-9.9,15.7-12.6,25-2.7,9.3-4.1,18.8-4.1,28.6s1.4,19.1,4.1,28.5c2.7,9.4,6.9,17.8,12.6,25.1,5.7,7.4,13.1,13.3,22,17.8,9,4.5,19.7,6.7,32.2,6.7s25-2.9,34.8-8.7l-24.8-17.7,9.2-10.7,27.4,19.7h0s13.4,9.7,13.4,9.7l1.6,1.2Z"/>
      <rect class="st4" x="4280.1" y="-436.7" width="113.2" height="14.4"/>
      <rect class="st4" x="4301.6" y="-521.3" width="83.2" height="14.4"/>
      <rect class="st4" x="4279.8" y="-437" width=".3" height=".3"/>
      <polygon class="st4" points="4261.9 -585.5 4261.9 -437 4279.8 -437 4279.8 -498.4 4279.8 -506.9 4279.8 -521.3 4279.8 -529.7 4279.8 -585.5 4261.9 -585.5"/>
    </g>
    <g>
      <polygon class="st4" points="4776.6 -992.2 4776.6 -1053 4549.6 -1053 4549.6 -992.6 4490.7 -992.6 4490.7 -932.4 4549.6 -932.4 4549.6 -884.2 4481.3 -884.2 4481.3 -799.7 4549.6 -799.7 4549.6 -753.4 4776.6 -753.4 4776.6 -814.2 4567.8 -814.2 4567.8 -872.3 4776.6 -872.3 4776.6 -933.1 4549.8 -933.1 4549.8 -992.2 4776.6 -992.2"/>
      <rect class="st4" x="4459.8" y="-1039.3" width="31.4" height="33"/>
    </g>
  </g>
  <rect class="st3" x="2681.2" y="-1287.5" width="1244.5" height="1111"/>
  <g>
    <g>
      <rect class="st4" x="2938.4" y="-599.9" width="111.8" height="14.4"/>
      <path class="st4" d="M3682.8-570.6c2.6,6.3,4,13.4,4,21.4s-1.3,15.1-4,21.4c-2.6,6.3-6.4,11.6-11.4,16-4.9,4.4-10.8,7.7-17.7,10-6.9,2.2-14.5,3.3-22.9,3.3h-43.9v-14.4h39.9c12.5,0,22.6-3,30.3-9,7.7-5.9,11.6-15.1,11.6-27.4s-3.9-21.4-11.6-27.3c-7.8-6-17.9-9-30.3-9h-61.7v163.3h-18v-177.7h83.6c8.4,0,16.1,1.1,22.9,3.3,6.9,2.2,12.7,5.6,17.7,10,5,4.4,8.7,9.8,11.4,16"/>
      <rect class="st4" x="3481" y="-599.9" width="18" height="177.7"/>
      <path class="st4" d="M3434.6-599.9v113.7c0,9.1-1.3,17.8-4.1,26-2.7,8.2-7,15.4-12.9,21.5-5.9,6.2-13.5,11-22.7,14.6-9.2,3.5-20.5,5.3-33.6,5.3s-24.2-1.8-33.4-5.3c-9.2-3.6-16.8-8.4-22.7-14.6-5.9-6.1-10.2-13.3-12.9-21.5-2.7-8.2-4.1-16.9-4.1-26v-113.7h18v110c0,10.3,1.2,19,3.7,26.2,2.4,7.2,6,13.1,10.8,17.7,4.7,4.6,10.6,7.9,17.4,10,6.8,2.1,14.6,3.1,23.2,3.1s16.6-1,23.5-3.1c6.9-2.1,12.7-5.4,17.4-10,4.7-4.6,8.3-10.4,10.8-17.7,2.4-7.2,3.7-16,3.7-26.2v-110h17.9Z"/>
      <polygon class="st4" points="3233.1 -434.7 3233.1 -434.6 3226.2 -439.5 3233.1 -434.7"/>
      <path class="st4" d="M3226.2-439.5l6.9,4.9h0c0,0,18.4,13,18.4,13l-9,10.4-29.3-20.6c-12.8,8.6-29.1,12.9-48.8,12.9s-27.7-2.5-38.9-7.6c-11.2-5.1-20.5-11.8-27.8-20.3-7.4-8.5-12.9-18.2-16.6-29.4-3.7-11.1-5.5-22.8-5.5-35.1s1.8-24,5.5-35.1c3.7-11.1,9.2-20.9,16.6-29.5,7.4-8.5,16.7-15.3,27.8-20.4,11.2-5.1,24.1-7.6,38.9-7.6s27.7,2.5,38.8,7.6c11.1,5.1,20.3,11.9,27.7,20.4,7.4,8.6,12.9,18.4,16.6,29.5,3.7,11.1,5.6,22.8,5.6,35.1s-2.4,27-7.1,39.2c-2.1,5.4-4.7,10.4-7.8,15.1l-13.8-10c2-3.5,3.7-7.2,5.1-11,3.8-10.8,5.7-21.9,5.7-33.4s-1.4-19.3-4.1-28.6c-2.7-9.3-7-17.6-12.7-25-5.7-7.4-13-13.3-21.9-17.8-8.9-4.5-19.6-6.7-32.1-6.7s-23.2,2.2-32.2,6.7c-9,4.5-16.3,10.4-22,17.8-5.7,7.4-9.9,15.7-12.6,25-2.7,9.3-4.1,18.8-4.1,28.6s1.4,19.1,4.1,28.5c2.7,9.4,6.9,17.8,12.6,25.1,5.7,7.4,13.1,13.3,22,17.8,9,4.5,19.7,6.7,32.2,6.7s25-2.9,34.8-8.7l-24.8-17.7,9.2-10.7,27.4,19.7h0s13.4,9.7,13.4,9.7l1.6,1.2Z"/>
      <rect class="st4" x="2938.4" y="-436.7" width="113.2" height="14.4"/>
      <rect class="st4" x="2959.9" y="-521.3" width="83.2" height="14.4"/>
      <rect class="st4" x="2938.1" y="-437" width=".3" height=".3"/>
      <polygon class="st4" points="2920.1 -585.5 2920.1 -437 2938.1 -437 2938.1 -498.4 2938.1 -506.9 2938.1 -521.3 2938.1 -529.7 2938.1 -585.5 2920.1 -585.5"/>
    </g>
    <g>
      <polygon class="st4" points="3434.9 -992.2 3434.9 -1053 3207.8 -1053 3207.8 -992.6 3148.9 -992.6 3148.9 -932.4 3207.8 -932.4 3207.8 -884.2 3139.6 -884.2 3139.6 -799.7 3207.8 -799.7 3207.8 -753.4 3434.9 -753.4 3434.9 -814.2 3226.1 -814.2 3226.1 -872.3 3434.9 -872.3 3434.9 -933.1 3208 -933.1 3208 -992.2 3434.9 -992.2"/>
      <rect class="st4" x="3118" y="-1039.3" width="31.4" height="33"/>
    </g>
  </g>
  <rect class="st2" x="1348.5" y="-1287.5" width="1244.5" height="1111"/>
  <g>
    <g>
      <rect class="st4" x="1605.7" y="-599.9" width="111.8" height="14.4"/>
      <path class="st4" d="M2350.1-570.6c2.6,6.3,4,13.4,4,21.4s-1.3,15.1-4,21.4c-2.6,6.3-6.4,11.6-11.4,16-4.9,4.4-10.8,7.7-17.7,10-6.9,2.2-14.5,3.3-22.9,3.3h-43.9v-14.4h39.9c12.5,0,22.6-3,30.3-9,7.7-5.9,11.6-15.1,11.6-27.4s-3.9-21.4-11.6-27.3c-7.8-6-17.9-9-30.3-9h-61.7v163.3h-18v-177.7h83.6c8.4,0,16.1,1.1,22.9,3.3,6.9,2.2,12.7,5.6,17.7,10,5,4.4,8.7,9.8,11.4,16"/>
      <rect class="st4" x="2148.3" y="-599.9" width="18" height="177.7"/>
      <path class="st4" d="M2101.9-599.9v113.7c0,9.1-1.3,17.8-4.1,26-2.7,8.2-7,15.4-12.9,21.5-5.9,6.2-13.5,11-22.7,14.6-9.2,3.5-20.5,5.3-33.6,5.3s-24.2-1.8-33.4-5.3c-9.2-3.6-16.8-8.4-22.7-14.6-5.9-6.1-10.2-13.3-12.9-21.5-2.7-8.2-4.1-16.9-4.1-26v-113.7h18v110c0,10.3,1.2,19,3.7,26.2,2.4,7.2,6,13.1,10.8,17.7,4.7,4.6,10.6,7.9,17.4,10,6.8,2.1,14.6,3.1,23.2,3.1s16.6-1,23.5-3.1c6.9-2.1,12.7-5.4,17.4-10,4.7-4.6,8.3-10.4,10.8-17.7,2.4-7.2,3.7-16,3.7-26.2v-110h17.9Z"/>
      <polygon class="st4" points="1900.4 -434.7 1900.4 -434.6 1893.5 -439.5 1900.4 -434.7"/>
      <path class="st4" d="M1893.5-439.5l6.9,4.9h0c0,0,18.4,13,18.4,13l-9,10.4-29.3-20.6c-12.8,8.6-29.1,12.9-48.8,12.9s-27.7-2.5-38.9-7.6c-11.2-5.1-20.5-11.8-27.8-20.3-7.4-8.5-12.9-18.2-16.6-29.4-3.7-11.1-5.5-22.8-5.5-35.1s1.8-24,5.5-35.1c3.7-11.1,9.2-20.9,16.6-29.5,7.4-8.5,16.7-15.3,27.8-20.4,11.2-5.1,24.1-7.6,38.9-7.6s27.7,2.5,38.8,7.6c11.1,5.1,20.3,11.9,27.7,20.4,7.4,8.6,12.9,18.4,16.6,29.5,3.7,11.1,5.6,22.8,5.6,35.1s-2.4,27-7.1,39.2c-2.1,5.4-4.7,10.4-7.8,15.1l-13.8-10c2-3.5,3.7-7.2,5.1-11,3.8-10.8,5.7-21.9,5.7-33.4s-1.4-19.3-4.1-28.6c-2.7-9.3-7-17.6-12.7-25-5.7-7.4-13-13.3-21.9-17.8-8.9-4.5-19.6-6.7-32.1-6.7s-23.2,2.2-32.2,6.7c-9,4.5-16.3,10.4-22,17.8-5.7,7.4-9.9,15.7-12.6,25-2.7,9.3-4.1,18.8-4.1,28.6s1.4,19.1,4.1,28.5c2.7,9.4,6.9,17.8,12.6,25.1,5.7,7.4,13.1,13.3,22,17.8,9,4.5,19.7,6.7,32.2,6.7s25-2.9,34.8-8.7l-24.8-17.7,9.2-10.7,27.4,19.7h0s13.4,9.7,13.4,9.7l1.6,1.2Z"/>
      <rect class="st4" x="1605.7" y="-436.7" width="113.2" height="14.4"/>
      <rect class="st4" x="1627.2" y="-521.3" width="83.2" height="14.4"/>
      <rect class="st4" x="1605.4" y="-437" width=".3" height=".3"/>
      <polygon class="st4" points="1587.4 -585.5 1587.4 -437 1605.4 -437 1605.4 -498.4 1605.4 -506.9 1605.4 -521.3 1605.4 -529.7 1605.4 -585.5 1587.4 -585.5"/>
    </g>
    <g>
      <polygon class="st4" points="2102.2 -992.2 2102.2 -1053 1875.1 -1053 1875.1 -992.6 1816.2 -992.6 1816.2 -932.4 1875.1 -932.4 1875.1 -884.2 1806.9 -884.2 1806.9 -799.7 1875.1 -799.7 1875.1 -753.4 2102.2 -753.4 2102.2 -814.2 1893.4 -814.2 1893.4 -872.3 2102.2 -872.3 2102.2 -933.1 1875.3 -933.1 1875.3 -992.2 2102.2 -992.2"/>
      <rect class="st4" x="1785.3" y="-1039.3" width="31.4" height="33"/>
    </g>
  </g>
  <g>
    <g>
      <rect class="st3" x="2938.4" y="687.6" width="111.8" height="14.4"/>
      <path class="st3" d="M3682.8,716.9c2.6,6.3,4,13.4,4,21.4s-1.3,15.1-4,21.4c-2.6,6.3-6.4,11.6-11.4,16-4.9,4.4-10.8,7.7-17.7,10-6.9,2.2-14.5,3.3-22.9,3.3h-43.9v-14.4h39.9c12.5,0,22.6-3,30.3-9,7.7-5.9,11.6-15.1,11.6-27.4s-3.9-21.4-11.6-27.3c-7.8-6-17.9-9-30.3-9h-61.7v163.3h-18v-177.7h83.6c8.4,0,16.1,1.1,22.9,3.3,6.9,2.2,12.7,5.6,17.7,10,5,4.4,8.7,9.8,11.4,16"/>
      <rect class="st3" x="3481" y="687.6" width="18" height="177.7"/>
      <path class="st3" d="M3434.6,687.6v113.7c0,9.1-1.3,17.8-4.1,26-2.7,8.2-7,15.4-12.9,21.5-5.9,6.2-13.5,11-22.7,14.6-9.2,3.5-20.5,5.3-33.6,5.3s-24.2-1.8-33.4-5.3c-9.2-3.6-16.8-8.4-22.7-14.6-5.9-6.1-10.2-13.3-12.9-21.5-2.7-8.2-4.1-16.9-4.1-26v-113.7h18v110c0,10.3,1.2,19,3.7,26.2,2.4,7.2,6,13.1,10.8,17.7,4.7,4.6,10.6,7.9,17.4,10,6.8,2.1,14.6,3.1,23.2,3.1s16.6-1,23.5-3.1c6.9-2.1,12.7-5.4,17.4-10,4.7-4.6,8.3-10.4,10.8-17.7,2.4-7.2,3.7-16,3.7-26.2v-110h17.9Z"/>
      <polygon class="st3" points="3233.1 852.9 3233.1 852.9 3226.2 848 3233.1 852.9"/>
      <path class="st3" d="M3226.2,848l6.9,4.9h0c0,0,18.4,13,18.4,13l-9,10.4-29.3-20.6c-12.8,8.6-29.1,12.9-48.8,12.9s-27.7-2.5-38.9-7.6c-11.2-5.1-20.5-11.8-27.8-20.3-7.4-8.5-12.9-18.2-16.6-29.4-3.7-11.1-5.5-22.8-5.5-35.1s1.8-24,5.5-35.1c3.7-11.1,9.2-20.9,16.6-29.5,7.4-8.5,16.7-15.3,27.8-20.4,11.2-5.1,24.1-7.6,38.9-7.6s27.7,2.5,38.8,7.6c11.1,5.1,20.3,11.9,27.7,20.4,7.4,8.6,12.9,18.4,16.6,29.5,3.7,11.1,5.6,22.8,5.6,35.1s-2.4,27-7.1,39.2c-2.1,5.4-4.7,10.4-7.8,15.1l-13.8-10c2-3.5,3.7-7.2,5.1-11,3.8-10.8,5.7-21.9,5.7-33.4s-1.4-19.3-4.1-28.6c-2.7-9.3-7-17.6-12.7-25-5.7-7.4-13-13.3-21.9-17.8-8.9-4.5-19.6-6.7-32.1-6.7s-23.2,2.2-32.2,6.7c-9,4.5-16.3,10.4-22,17.8-5.7,7.4-9.9,15.7-12.6,25-2.7,9.3-4.1,18.8-4.1,28.6s1.4,19.1,4.1,28.5c2.7,9.4,6.9,17.8,12.6,25.1,5.7,7.4,13.1,13.3,22,17.8,9,4.5,19.7,6.7,32.2,6.7s25-2.9,34.8-8.7l-24.8-17.7,9.2-10.7,27.4,19.7h0s13.4,9.7,13.4,9.7l1.6,1.2Z"/>
      <rect class="st3" x="2938.4" y="850.8" width="113.2" height="14.4"/>
      <rect class="st3" x="2959.9" y="766.2" width="83.2" height="14.4"/>
      <rect class="st3" x="2938.1" y="850.5" width=".3" height=".3"/>
      <polygon class="st3" points="2920.1 702 2920.1 850.5 2938.1 850.5 2938.1 789.1 2938.1 780.6 2938.1 766.2 2938.1 757.9 2938.1 702 2920.1 702"/>
    </g>
    <g>
      <polygon class="st3" points="3434.9 295.3 3434.9 234.6 3207.8 234.6 3207.8 294.9 3148.9 294.9 3148.9 355.1 3207.8 355.1 3207.8 403.3 3139.6 403.3 3139.6 487.9 3207.8 487.9 3207.8 534.1 3434.9 534.1 3434.9 473.3 3226.1 473.3 3226.1 415.2 3434.9 415.2 3434.9 354.4 3208 354.4 3208 295.3 3434.9 295.3"/>
      <rect class="st3" x="3118" y="248.2" width="31.4" height="33"/>
    </g>
  </g>
  <g>
    <g>
      <rect class="st4" x="1605.7" y="687.6" width="111.8" height="14.4"/>
      <path class="st4" d="M2350.1,716.9c2.6,6.3,4,13.4,4,21.4s-1.3,15.1-4,21.4c-2.6,6.3-6.4,11.6-11.4,16-4.9,4.4-10.8,7.7-17.7,10-6.9,2.2-14.5,3.3-22.9,3.3h-43.9v-14.4h39.9c12.5,0,22.6-3,30.3-9,7.7-5.9,11.6-15.1,11.6-27.4s-3.9-21.4-11.6-27.3c-7.8-6-17.9-9-30.3-9h-61.7v163.3h-18v-177.7h83.6c8.4,0,16.1,1.1,22.9,3.3,6.9,2.2,12.7,5.6,17.7,10,5,4.4,8.7,9.8,11.4,16"/>
      <rect class="st4" x="2148.3" y="687.6" width="18" height="177.7"/>
      <path class="st4" d="M2101.9,687.6v113.7c0,9.1-1.3,17.8-4.1,26-2.7,8.2-7,15.4-12.9,21.5-5.9,6.2-13.5,11-22.7,14.6-9.2,3.5-20.5,5.3-33.6,5.3s-24.2-1.8-33.4-5.3c-9.2-3.6-16.8-8.4-22.7-14.6-5.9-6.1-10.2-13.3-12.9-21.5-2.7-8.2-4.1-16.9-4.1-26v-113.7h18v110c0,10.3,1.2,19,3.7,26.2,2.4,7.2,6,13.1,10.8,17.7,4.7,4.6,10.6,7.9,17.4,10,6.8,2.1,14.6,3.1,23.2,3.1s16.6-1,23.5-3.1c6.9-2.1,12.7-5.4,17.4-10,4.7-4.6,8.3-10.4,10.8-17.7,2.4-7.2,3.7-16,3.7-26.2v-110h17.9Z"/>
      <polygon class="st4" points="1900.4 852.9 1900.4 852.9 1893.5 848 1900.4 852.9"/>
      <path class="st4" d="M1893.5,848l6.9,4.9h0c0,0,18.4,13,18.4,13l-9,10.4-29.3-20.6c-12.8,8.6-29.1,12.9-48.8,12.9s-27.7-2.5-38.9-7.6c-11.2-5.1-20.5-11.8-27.8-20.3-7.4-8.5-12.9-18.2-16.6-29.4-3.7-11.1-5.5-22.8-5.5-35.1s1.8-24,5.5-35.1c3.7-11.1,9.2-20.9,16.6-29.5,7.4-8.5,16.7-15.3,27.8-20.4,11.2-5.1,24.1-7.6,38.9-7.6s27.7,2.5,38.8,7.6c11.1,5.1,20.3,11.9,27.7,20.4,7.4,8.6,12.9,18.4,16.6,29.5,3.7,11.1,5.6,22.8,5.6,35.1s-2.4,27-7.1,39.2c-2.1,5.4-4.7,10.4-7.8,15.1l-13.8-10c2-3.5,3.7-7.2,5.1-11,3.8-10.8,5.7-21.9,5.7-33.4s-1.4-19.3-4.1-28.6c-2.7-9.3-7-17.6-12.7-25-5.7-7.4-13-13.3-21.9-17.8-8.9-4.5-19.6-6.7-32.1-6.7s-23.2,2.2-32.2,6.7c-9,4.5-16.3,10.4-22,17.8-5.7,7.4-9.9,15.7-12.6,25-2.7,9.3-4.1,18.8-4.1,28.6s1.4,19.1,4.1,28.5c2.7,9.4,6.9,17.8,12.6,25.1,5.7,7.4,13.1,13.3,22,17.8,9,4.5,19.7,6.7,32.2,6.7s25-2.9,34.8-8.7l-24.8-17.7,9.2-10.7,27.4,19.7h0s13.4,9.7,13.4,9.7l1.6,1.2Z"/>
      <rect class="st4" x="1605.7" y="850.8" width="113.2" height="14.4"/>
      <rect class="st4" x="1627.2" y="766.2" width="83.2" height="14.4"/>
      <rect class="st4" x="1605.4" y="850.5" width=".3" height=".3"/>
      <polygon class="st4" points="1587.4 702 1587.4 850.5 1605.4 850.5 1605.4 789.1 1605.4 780.6 1605.4 766.2 1605.4 757.9 1605.4 702 1587.4 702"/>
    </g>
    <g>
      <polygon class="st4" points="2102.2 295.3 2102.2 234.6 1875.1 234.6 1875.1 294.9 1816.2 294.9 1816.2 355.1 1875.1 355.1 1875.1 403.3 1806.9 403.3 1806.9 487.9 1875.1 487.9 1875.1 534.1 2102.2 534.1 2102.2 473.3 1893.4 473.3 1893.4 415.2 2102.2 415.2 2102.2 354.4 1875.3 354.4 1875.3 295.3 2102.2 295.3"/>
      <rect class="st4" x="1785.3" y="248.2" width="31.4" height="33"/>
    </g>
  </g>
  <g>
    <g>
      <rect class="st1" x="1693.9" y="1975.1" width="111.8" height="14.4"/>
      <path class="st1" d="M2438.3,2004.5c2.6,6.3,4,13.4,4,21.4s-1.3,15.1-4,21.4c-2.6,6.3-6.4,11.6-11.4,16-4.9,4.4-10.8,7.7-17.7,10-6.9,2.2-14.5,3.3-22.9,3.3h-43.9v-14.4h39.9c12.5,0,22.6-3,30.3-9,7.7-5.9,11.6-15.1,11.6-27.4s-3.9-21.4-11.6-27.3c-7.8-6-17.9-9-30.3-9h-61.7v163.3h-18v-177.7h83.6c8.4,0,16.1,1.1,22.9,3.3,6.9,2.2,12.7,5.6,17.7,10,5,4.4,8.7,9.8,11.4,16"/>
      <rect class="st1" x="2236.5" y="1975.1" width="18" height="177.7"/>
      <path class="st1" d="M2190.1,1975.1v113.7c0,9.1-1.3,17.8-4.1,26-2.7,8.2-7,15.4-12.9,21.5-5.9,6.2-13.5,11-22.7,14.6-9.2,3.5-20.5,5.3-33.6,5.3s-24.2-1.8-33.4-5.3c-9.2-3.6-16.8-8.4-22.7-14.6-5.9-6.1-10.2-13.3-12.9-21.5-2.7-8.2-4.1-16.9-4.1-26v-113.7h18v110c0,10.3,1.2,19,3.7,26.2,2.4,7.2,6,13.1,10.8,17.7,4.7,4.6,10.6,7.9,17.4,10,6.8,2.1,14.6,3.1,23.2,3.1s16.6-1,23.5-3.1c6.9-2.1,12.7-5.4,17.4-10,4.7-4.6,8.3-10.4,10.8-17.7,2.4-7.2,3.7-16,3.7-26.2v-110h17.9Z"/>
      <polygon class="st1" points="1988.6 2140.4 1988.6 2140.5 1981.7 2135.5 1988.6 2140.4"/>
      <path class="st1" d="M1981.7,2135.5l6.9,4.9h0c0,0,18.4,13,18.4,13l-9,10.4-29.3-20.6c-12.8,8.6-29.1,12.9-48.8,12.9s-27.7-2.5-38.9-7.6c-11.2-5.1-20.5-11.8-27.8-20.3-7.4-8.5-12.9-18.2-16.6-29.4-3.7-11.1-5.5-22.8-5.5-35.1s1.8-24,5.5-35.1c3.7-11.1,9.2-20.9,16.6-29.5,7.4-8.5,16.7-15.3,27.8-20.4,11.2-5.1,24.1-7.6,38.9-7.6s27.7,2.5,38.8,7.6c11.1,5.1,20.3,11.9,27.7,20.4,7.4,8.6,12.9,18.4,16.6,29.5,3.7,11.1,5.6,22.8,5.6,35.1s-2.4,27-7.1,39.2c-2.1,5.4-4.7,10.4-7.8,15.1l-13.8-10c2-3.5,3.7-7.2,5.1-11,3.8-10.8,5.7-21.9,5.7-33.4s-1.4-19.3-4.1-28.6c-2.7-9.3-7-17.6-12.7-25-5.7-7.4-13-13.3-21.9-17.8-8.9-4.5-19.6-6.7-32.1-6.7s-23.2,2.2-32.2,6.7c-9,4.5-16.3,10.4-22,17.8-5.7,7.4-9.9,15.7-12.6,25-2.7,9.3-4.1,18.8-4.1,28.6s1.4,19.1,4.1,28.5c2.7,9.4,6.9,17.8,12.6,25.1,5.7,7.4,13.1,13.3,22,17.8,9,4.5,19.7,6.7,32.2,6.7s25-2.9,34.8-8.7l-24.8-17.7,9.2-10.7,27.4,19.7h0s13.4,9.7,13.4,9.7l1.6,1.2Z"/>
      <rect class="st1" x="1693.9" y="2138.3" width="113.2" height="14.4"/>
      <rect class="st1" x="1715.4" y="2053.7" width="83.2" height="14.4"/>
      <rect class="st1" x="1693.6" y="2138.1" width=".3" height=".3"/>
      <polygon class="st1" points="1675.7 1989.5 1675.7 2138.1 1693.6 2138.1 1693.6 2076.6 1693.6 2068.1 1693.6 2053.7 1693.6 2045.4 1693.6 1989.5 1675.7 1989.5"/>
    </g>
    <g>
      <polygon class="st1" points="2190.4 1582.8 2190.4 1522.1 1963.3 1522.1 1963.3 1582.4 1904.5 1582.4 1904.5 1642.7 1963.3 1642.7 1963.3 1690.9 1895.1 1690.9 1895.1 1775.4 1963.3 1775.4 1963.3 1821.6 2190.4 1821.6 2190.4 1760.9 1981.6 1760.9 1981.6 1702.7 2190.4 1702.7 2190.4 1642 1963.5 1642 1963.5 1582.8 2190.4 1582.8"/>
      <rect class="st1" x="1873.5" y="1535.8" width="31.4" height="33"/>
    </g>
  </g>
  <g>
    <g>
      <rect x="257.2" y="1975.1" width="111.8" height="14.4"/>
      <path d="M1001.6,2004.5c2.6,6.3,4,13.4,4,21.4s-1.3,15.1-4,21.4c-2.6,6.3-6.4,11.6-11.4,16-4.9,4.4-10.8,7.7-17.7,10-6.9,2.2-14.5,3.3-22.9,3.3h-43.9v-14.4h39.9c12.5,0,22.6-3,30.3-9,7.7-5.9,11.6-15.1,11.6-27.4s-3.9-21.4-11.6-27.3c-7.8-6-17.9-9-30.3-9h-61.7v163.3h-18v-177.7h83.6c8.4,0,16.1,1.1,22.9,3.3,6.9,2.2,12.7,5.6,17.7,10,5,4.4,8.7,9.8,11.4,16"/>
      <rect x="799.8" y="1975.1" width="18" height="177.7"/>
      <path d="M753.4,1975.1v113.7c0,9.1-1.3,17.8-4.1,26-2.7,8.2-7,15.4-12.9,21.5-5.9,6.2-13.5,11-22.7,14.6-9.2,3.5-20.5,5.3-33.6,5.3s-24.2-1.8-33.4-5.3c-9.2-3.6-16.8-8.4-22.7-14.6-5.9-6.1-10.2-13.3-12.9-21.5-2.7-8.2-4.1-16.9-4.1-26v-113.7h18v110c0,10.3,1.2,19,3.7,26.2,2.4,7.2,6,13.1,10.8,17.7,4.7,4.6,10.6,7.9,17.4,10,6.8,2.1,14.6,3.1,23.2,3.1s16.6-1,23.5-3.1c6.9-2.1,12.7-5.4,17.4-10,4.7-4.6,8.3-10.4,10.8-17.7,2.4-7.2,3.7-16,3.7-26.2v-110h17.9Z"/>
      <polygon points="551.9 2140.4 551.8 2140.5 545 2135.5 551.9 2140.4"/>
      <path d="M545,2135.5l6.9,4.9h0c0,0,18.4,13,18.4,13l-9,10.4-29.3-20.6c-12.8,8.6-29.1,12.9-48.8,12.9s-27.7-2.5-38.9-7.6c-11.2-5.1-20.5-11.8-27.8-20.3-7.4-8.5-12.9-18.2-16.6-29.4-3.7-11.1-5.5-22.8-5.5-35.1s1.8-24,5.5-35.1c3.7-11.1,9.2-20.9,16.6-29.5,7.4-8.5,16.7-15.3,27.8-20.4,11.2-5.1,24.1-7.6,38.9-7.6s27.7,2.5,38.8,7.6c11.1,5.1,20.3,11.9,27.7,20.4,7.4,8.6,12.9,18.4,16.6,29.5,3.7,11.1,5.6,22.8,5.6,35.1s-2.4,27-7.1,39.2c-2.1,5.4-4.7,10.4-7.8,15.1l-13.8-10c2-3.5,3.7-7.2,5.1-11,3.8-10.8,5.7-21.9,5.7-33.4s-1.4-19.3-4.1-28.6c-2.7-9.3-7-17.6-12.7-25-5.7-7.4-13-13.3-21.9-17.8-8.9-4.5-19.6-6.7-32.1-6.7s-23.2,2.2-32.2,6.7c-9,4.5-16.3,10.4-22,17.8-5.7,7.4-9.9,15.7-12.6,25-2.7,9.3-4.1,18.8-4.1,28.6s1.4,19.1,4.1,28.5c2.7,9.4,6.9,17.8,12.6,25.1,5.7,7.4,13.1,13.3,22,17.8,9,4.5,19.7,6.7,32.2,6.7s25-2.9,34.8-8.7l-24.8-17.7,9.2-10.7,27.4,19.7h0s13.4,9.7,13.4,9.7l1.6,1.2Z"/>
      <rect x="257.2" y="2138.3" width="113.2" height="14.4"/>
      <rect x="278.7" y="2053.7" width="83.2" height="14.4"/>
      <rect x="256.9" y="2138.1" width=".3" height=".3"/>
      <polygon points="238.9 1989.5 238.9 2138.1 256.9 2138.1 256.9 2076.6 256.9 2068.1 256.9 2053.7 256.9 2045.4 256.9 1989.5 238.9 1989.5"/>
    </g>
    <g>
      <polygon points="753.7 1582.8 753.7 1522.1 526.6 1522.1 526.6 1582.4 467.7 1582.4 467.7 1642.7 526.6 1642.7 526.6 1690.9 458.4 1690.9 458.4 1775.4 526.6 1775.4 526.6 1821.6 753.7 1821.6 753.7 1760.9 544.9 1760.9 544.9 1702.7 753.7 1702.7 753.7 1642 526.8 1642 526.8 1582.8 753.7 1582.8"/>
      <rect x="436.8" y="1535.8" width="31.4" height="33"/>
    </g>
  </g>
  <g>
    <g>
      <rect class="st2" x="257.2" y="687.6" width="111.8" height="14.4"/>
      <path class="st2" d="M1001.6,716.9c2.6,6.3,4,13.4,4,21.4s-1.3,15.1-4,21.4c-2.6,6.3-6.4,11.6-11.4,16-4.9,4.4-10.8,7.7-17.7,10-6.9,2.2-14.5,3.3-22.9,3.3h-43.9v-14.4h39.9c12.5,0,22.6-3,30.3-9,7.7-5.9,11.6-15.1,11.6-27.4s-3.9-21.4-11.6-27.3c-7.8-6-17.9-9-30.3-9h-61.7v163.3h-18v-177.7h83.6c8.4,0,16.1,1.1,22.9,3.3,6.9,2.2,12.7,5.6,17.7,10,5,4.4,8.7,9.8,11.4,16"/>
      <rect class="st2" x="799.8" y="687.6" width="18" height="177.7"/>
      <path class="st2" d="M753.4,687.6v113.7c0,9.1-1.3,17.8-4.1,26-2.7,8.2-7,15.4-12.9,21.5-5.9,6.2-13.5,11-22.7,14.6-9.2,3.5-20.5,5.3-33.6,5.3s-24.2-1.8-33.4-5.3c-9.2-3.6-16.8-8.4-22.7-14.6-5.9-6.1-10.2-13.3-12.9-21.5-2.7-8.2-4.1-16.9-4.1-26v-113.7h18v110c0,10.3,1.2,19,3.7,26.2,2.4,7.2,6,13.1,10.8,17.7,4.7,4.6,10.6,7.9,17.4,10,6.8,2.1,14.6,3.1,23.2,3.1s16.6-1,23.5-3.1c6.9-2.1,12.7-5.4,17.4-10,4.7-4.6,8.3-10.4,10.8-17.7,2.4-7.2,3.7-16,3.7-26.2v-110h17.9Z"/>
      <polygon class="st2" points="551.9 852.9 551.8 852.9 545 848 551.9 852.9"/>
      <path class="st2" d="M545,848l6.9,4.9h0c0,0,18.4,13,18.4,13l-9,10.4-29.3-20.6c-12.8,8.6-29.1,12.9-48.8,12.9s-27.7-2.5-38.9-7.6c-11.2-5.1-20.5-11.8-27.8-20.3-7.4-8.5-12.9-18.2-16.6-29.4-3.7-11.1-5.5-22.8-5.5-35.1s1.8-24,5.5-35.1c3.7-11.1,9.2-20.9,16.6-29.5,7.4-8.5,16.7-15.3,27.8-20.4,11.2-5.1,24.1-7.6,38.9-7.6s27.7,2.5,38.8,7.6c11.1,5.1,20.3,11.9,27.7,20.4,7.4,8.6,12.9,18.4,16.6,29.5,3.7,11.1,5.6,22.8,5.6,35.1s-2.4,27-7.1,39.2c-2.1,5.4-4.7,10.4-7.8,15.1l-13.8-10c2-3.5,3.7-7.2,5.1-11,3.8-10.8,5.7-21.9,5.7-33.4s-1.4-19.3-4.1-28.6c-2.7-9.3-7-17.6-12.7-25-5.7-7.4-13-13.3-21.9-17.8-8.9-4.5-19.6-6.7-32.1-6.7s-23.2,2.2-32.2,6.7c-9,4.5-16.3,10.4-22,17.8-5.7,7.4-9.9,15.7-12.6,25-2.7,9.3-4.1,18.8-4.1,28.6s1.4,19.1,4.1,28.5c2.7,9.4,6.9,17.8,12.6,25.1,5.7,7.4,13.1,13.3,22,17.8,9,4.5,19.7,6.7,32.2,6.7s25-2.9,34.8-8.7l-24.8-17.7,9.2-10.7,27.4,19.7h0s13.4,9.7,13.4,9.7l1.6,1.2Z"/>
      <rect class="st2" x="257.2" y="850.8" width="113.2" height="14.4"/>
      <rect class="st2" x="278.7" y="766.2" width="83.2" height="14.4"/>
      <rect class="st2" x="256.9" y="850.5" width=".3" height=".3"/>
      <polygon class="st2" points="238.9 702 238.9 850.5 256.9 850.5 256.9 789.1 256.9 780.6 256.9 766.2 256.9 757.9 256.9 702 238.9 702"/>
    </g>
    <g>
      <polygon class="st2" points="753.7 295.3 753.7 234.6 526.6 234.6 526.6 294.9 467.7 294.9 467.7 355.1 526.6 355.1 526.6 403.3 458.4 403.3 458.4 487.9 526.6 487.9 526.6 534.1 753.7 534.1 753.7 473.3 544.9 473.3 544.9 415.2 753.7 415.2 753.7 354.4 526.8 354.4 526.8 295.3 753.7 295.3"/>
      <rect class="st2" x="436.8" y="248.2" width="31.4" height="33"/>
    </g>
  </g>
  <rect class="st4" x="0" y="-1287.5" width="1244.5" height="1111"/>
  <g>
    <g>
      <rect class="st2" x="257.2" y="-599.9" width="111.8" height="14.4"/>
      <path class="st2" d="M1001.6-570.6c2.6,6.3,4,13.4,4,21.4s-1.3,15.1-4,21.4c-2.6,6.3-6.4,11.6-11.4,16-4.9,4.4-10.8,7.7-17.7,10-6.9,2.2-14.5,3.3-22.9,3.3h-43.9v-14.4h39.9c12.5,0,22.6-3,30.3-9,7.7-5.9,11.6-15.1,11.6-27.4s-3.9-21.4-11.6-27.3c-7.8-6-17.9-9-30.3-9h-61.7v163.3h-18v-177.7h83.6c8.4,0,16.1,1.1,22.9,3.3,6.9,2.2,12.7,5.6,17.7,10,5,4.4,8.7,9.8,11.4,16"/>
      <rect class="st2" x="799.8" y="-599.9" width="18" height="177.7"/>
      <path class="st2" d="M753.4-599.9v113.7c0,9.1-1.3,17.8-4.1,26-2.7,8.2-7,15.4-12.9,21.5-5.9,6.2-13.5,11-22.7,14.6-9.2,3.5-20.5,5.3-33.6,5.3s-24.2-1.8-33.4-5.3c-9.2-3.6-16.8-8.4-22.7-14.6-5.9-6.1-10.2-13.3-12.9-21.5-2.7-8.2-4.1-16.9-4.1-26v-113.7h18v110c0,10.3,1.2,19,3.7,26.2,2.4,7.2,6,13.1,10.8,17.7,4.7,4.6,10.6,7.9,17.4,10,6.8,2.1,14.6,3.1,23.2,3.1s16.6-1,23.5-3.1c6.9-2.1,12.7-5.4,17.4-10,4.7-4.6,8.3-10.4,10.8-17.7,2.4-7.2,3.7-16,3.7-26.2v-110h17.9Z"/>
      <polygon class="st2" points="551.9 -434.7 551.8 -434.6 545 -439.5 551.9 -434.7"/>
      <path class="st2" d="M545-439.5l6.9,4.9h0c0,0,18.4,13,18.4,13l-9,10.4-29.3-20.6c-12.8,8.6-29.1,12.9-48.8,12.9s-27.7-2.5-38.9-7.6c-11.2-5.1-20.5-11.8-27.8-20.3-7.4-8.5-12.9-18.2-16.6-29.4-3.7-11.1-5.5-22.8-5.5-35.1s1.8-24,5.5-35.1c3.7-11.1,9.2-20.9,16.6-29.5,7.4-8.5,16.7-15.3,27.8-20.4,11.2-5.1,24.1-7.6,38.9-7.6s27.7,2.5,38.8,7.6c11.1,5.1,20.3,11.9,27.7,20.4,7.4,8.6,12.9,18.4,16.6,29.5,3.7,11.1,5.6,22.8,5.6,35.1s-2.4,27-7.1,39.2c-2.1,5.4-4.7,10.4-7.8,15.1l-13.8-10c2-3.5,3.7-7.2,5.1-11,3.8-10.8,5.7-21.9,5.7-33.4s-1.4-19.3-4.1-28.6c-2.7-9.3-7-17.6-12.7-25-5.7-7.4-13-13.3-21.9-17.8-8.9-4.5-19.6-6.7-32.1-6.7s-23.2,2.2-32.2,6.7c-9,4.5-16.3,10.4-22,17.8-5.7,7.4-9.9,15.7-12.6,25-2.7,9.3-4.1,18.8-4.1,28.6s1.4,19.1,4.1,28.5c2.7,9.4,6.9,17.8,12.6,25.1,5.7,7.4,13.1,13.3,22,17.8,9,4.5,19.7,6.7,32.2,6.7s25-2.9,34.8-8.7l-24.8-17.7,9.2-10.7,27.4,19.7h0s13.4,9.7,13.4,9.7l1.6,1.2Z"/>
      <rect class="st2" x="257.2" y="-436.7" width="113.2" height="14.4"/>
      <rect class="st2" x="278.7" y="-521.3" width="83.2" height="14.4"/>
      <rect class="st2" x="256.9" y="-437" width=".3" height=".3"/>
      <polygon class="st2" points="238.9 -585.5 238.9 -437 256.9 -437 256.9 -498.4 256.9 -506.9 256.9 -521.3 256.9 -529.7 256.9 -585.5 238.9 -585.5"/>
    </g>
    <g>
      <polygon class="st2" points="753.7 -992.2 753.7 -1053 526.6 -1053 526.6 -992.6 467.7 -992.6 467.7 -932.4 526.6 -932.4 526.6 -884.2 458.4 -884.2 458.4 -799.7 526.6 -799.7 526.6 -753.4 753.7 -753.4 753.7 -814.2 544.9 -814.2 544.9 -872.3 753.7 -872.3 753.7 -933.1 526.8 -933.1 526.8 -992.2 753.7 -992.2"/>
      <rect class="st2" x="436.8" y="-1039.3" width="31.4" height="33"/>
    </g>
  </g>
  <rect class="st4" x="6312" y="-867.4" width="1244.5" height="1111"/>
  <g>
    <g>
      <rect class="st2" x="6569.2" y="-179.8" width="111.8" height="14.4"/>
      <path class="st2" d="M7313.6-150.5c2.6,6.3,4,13.4,4,21.4s-1.3,15.1-4,21.4c-2.6,6.3-6.4,11.6-11.4,16-4.9,4.4-10.8,7.7-17.7,10-6.9,2.2-14.5,3.3-22.9,3.3h-43.9v-14.4h39.9c12.5,0,22.6-3,30.3-9,7.7-5.9,11.6-15.1,11.6-27.4s-3.9-21.4-11.6-27.3c-7.8-6-17.9-9-30.3-9h-61.7V-2.1h-18v-177.7h83.6c8.4,0,16.1,1.1,22.9,3.3,6.9,2.2,12.7,5.6,17.7,10,5,4.4,8.7,9.8,11.4,16"/>
      <rect class="st2" x="7111.8" y="-179.8" width="18" height="177.7"/>
      <path class="st2" d="M7065.4-179.8v113.7c0,9.1-1.3,17.8-4.1,26-2.7,8.2-7,15.4-12.9,21.5-5.9,6.2-13.5,11-22.7,14.6-9.2,3.5-20.5,5.3-33.6,5.3s-24.2-1.8-33.4-5.3c-9.2-3.6-16.8-8.4-22.7-14.6-5.9-6.1-10.2-13.3-12.9-21.5-2.7-8.2-4.1-16.9-4.1-26v-113.7h18v110c0,10.3,1.2,19,3.7,26.2,2.4,7.2,6,13.1,10.8,17.7,4.7,4.6,10.6,7.9,17.4,10,6.8,2.1,14.6,3.1,23.2,3.1s16.6-1,23.5-3.1c6.9-2.1,12.7-5.4,17.4-10,4.7-4.6,8.3-10.4,10.8-17.7,2.4-7.2,3.7-16,3.7-26.2v-110h17.9Z"/>
      <polygon class="st2" points="6863.9 -14.5 6863.8 -14.5 6857 -19.4 6863.9 -14.5"/>
      <path class="st2" d="M6857-19.4l6.9,4.9h0c0,0,18.4,13,18.4,13l-9,10.4-29.3-20.6c-12.8,8.6-29.1,12.9-48.8,12.9s-27.7-2.5-38.9-7.6c-11.2-5.1-20.5-11.8-27.8-20.3-7.4-8.5-12.9-18.2-16.6-29.4-3.7-11.1-5.5-22.8-5.5-35.1s1.8-24,5.5-35.1c3.7-11.1,9.2-20.9,16.6-29.5,7.4-8.5,16.7-15.3,27.8-20.4,11.2-5.1,24.1-7.6,38.9-7.6s27.7,2.5,38.8,7.6c11.1,5.1,20.3,11.9,27.7,20.4,7.4,8.6,12.9,18.4,16.6,29.5,3.7,11.1,5.6,22.8,5.6,35.1s-2.4,27-7.1,39.2c-2.1,5.4-4.7,10.4-7.8,15.1l-13.8-10c2-3.5,3.7-7.2,5.1-11,3.8-10.8,5.7-21.9,5.7-33.4s-1.4-19.3-4.1-28.6c-2.7-9.3-7-17.6-12.7-25-5.7-7.4-13-13.3-21.9-17.8-8.9-4.5-19.6-6.7-32.1-6.7s-23.2,2.2-32.2,6.7c-9,4.5-16.3,10.4-22,17.8-5.7,7.4-9.9,15.7-12.6,25-2.7,9.3-4.1,18.8-4.1,28.6s1.4,19.1,4.1,28.5c2.7,9.4,6.9,17.8,12.6,25.1,5.7,7.4,13.1,13.3,22,17.8,9,4.5,19.7,6.7,32.2,6.7s25-2.9,34.8-8.7l-24.8-17.7,9.2-10.7,27.4,19.7h0s13.4,9.7,13.4,9.7l1.6,1.2Z"/>
      <rect class="st2" x="6569.2" y="-16.6" width="113.2" height="14.4"/>
      <rect class="st2" x="6590.7" y="-101.2" width="83.2" height="14.4"/>
      <rect class="st2" x="6568.9" y="-16.8" width=".3" height=".3"/>
      <polygon class="st2" points="6550.9 -165.4 6550.9 -16.9 6568.9 -16.9 6568.9 -78.3 6568.9 -86.8 6568.9 -101.2 6568.9 -109.5 6568.9 -165.4 6550.9 -165.4"/>
    </g>
    <g>
      <polygon class="st2" points="6867.8 -572.1 6867.8 -632.8 6640.7 -632.8 6640.7 -572.5 6581.8 -572.5 6581.8 -512.2 6640.7 -512.2 6640.7 -464 6572.5 -464 6572.5 -379.5 6640.7 -379.5 6640.7 -333.3 6867.8 -333.3 6867.8 -394.1 6659 -394.1 6659 -452.2 6867.8 -452.2 6867.8 -512.9 6640.9 -512.9 6640.9 -572.1 6867.8 -572.1"/>
      <rect class="st2" x="6550.9" y="-619.2" width="31.4" height="33"/>
    </g>
  </g>
</svg>